<svg width="23" height="27" viewBox="0 0 23 27" fill="none" xmlns="http://www.w3.org/2000/svg">
<path d="M4.04129 9.72371C6.39054 8.99656 8.73357 8.2632 11.0828 7.53605C11.232 7.49254 11.232 7.46768 11.1388 7.35581C9.4545 5.29245 7.77025 3.22909 6.086 1.16573C6.06114 1.13466 6.03628 1.1098 6.00521 1.07251C5.97413 1.1098 5.95549 1.13466 5.93063 1.16573C5.88091 1.2341 5.83741 1.30246 5.78147 1.36461C5.36507 1.84316 4.95489 2.32171 4.52605 2.78783C3.31414 4.09297 2.08358 5.37325 0.82195 6.62867C0.710081 6.74054 0.598212 6.86483 0.486343 6.98292C0.430409 7.03885 0.411764 7.10722 0.411764 7.18801C0.411764 7.44282 0.399334 7.69142 0.386904 7.94623C0.337185 8.73553 0.29368 9.52483 0.28125 10.3203C0.28125 10.5068 0.287465 10.687 0.29368 10.8859C0.35583 10.8673 0.393119 10.8548 0.424193 10.8486C1.62989 10.4757 2.83559 10.1028 4.03507 9.72992L4.04129 9.72371Z" fill="#80E7DB"/>
<path d="M22.2643 8.52422C22.2394 8.06432 22.2208 7.60441 22.2021 7.14451C22.2021 7.08857 22.1773 7.04507 22.1462 7.00156C22.0157 6.85862 21.8852 6.71568 21.7547 6.57895C20.4122 5.23652 19.0947 3.86923 17.8082 2.47087C17.4104 2.03583 17.0065 1.60078 16.6584 1.11601C16.646 1.09737 16.6273 1.09115 16.6087 1.07251C16.5776 1.10358 16.5528 1.13466 16.5279 1.16573C15.8691 1.97368 15.2103 2.7754 14.5578 3.58335C13.5261 4.84498 12.5006 6.10661 11.4689 7.36824C11.4006 7.45525 11.3881 7.49254 11.5124 7.52983C11.5187 7.52983 11.5249 7.52983 11.5373 7.52983C12.9295 7.96488 14.3278 8.39371 15.72 8.82876C17.8082 9.47511 19.8964 10.1277 21.9846 10.774C22.0903 10.8051 22.2021 10.8362 22.3202 10.8735C22.3264 10.7678 22.3389 10.6746 22.3389 10.5814C22.3513 9.89151 22.3078 9.20165 22.2767 8.51179L22.2643 8.52422Z" fill="#80E7DB"/>
<path d="M15.4802 15.2177C15.4802 15.2177 15.4802 15.2177 15.4678 15.2052C12.6959 15.1928 9.9116 15.1928 7.12109 15.2052C7.13974 15.2612 7.15217 15.2985 7.1646 15.3358C7.89796 17.25 8.63132 19.1579 9.3709 21.0722C9.98618 22.6694 10.5952 24.2666 11.2105 25.8577C11.2292 25.9136 11.2665 25.9633 11.2975 26.0317C11.3224 26.0006 11.341 25.9882 11.3473 25.9695C11.3535 25.9571 11.3659 25.9447 11.3721 25.9322C11.3845 25.9074 11.3908 25.8825 11.4032 25.8577C12.7643 22.3151 14.1191 18.7726 15.4802 15.2239C15.4802 15.2239 15.4802 15.2177 15.4802 15.2115V15.2177Z" fill="#80E7DB"/>
<path d="M11.4906 7.65413C12.9138 10.1277 14.3432 12.595 15.7665 15.0686C15.8162 15.0561 15.8597 15.0437 15.9032 15.0313C16.4688 14.851 17.0343 14.6708 17.6061 14.503C18.7559 14.1612 19.9056 13.8069 21.0305 13.3967C21.1673 13.347 21.304 13.2973 21.4469 13.2414C21.4407 13.1606 21.4345 13.086 21.4283 13.0114C21.4159 12.8995 21.4034 12.7877 21.391 12.6758C21.3848 12.5453 21.3848 12.4148 21.3661 12.2843C21.3599 12.2283 21.3661 12.191 21.4034 12.1475C21.6769 11.7871 21.9503 11.4266 22.2238 11.0661C22.2424 11.0413 22.2611 11.0164 22.2859 10.9791C18.6813 9.86044 15.089 8.74796 11.4968 7.62927C11.4968 7.63549 11.4844 7.6417 11.4844 7.64792L11.4906 7.65413Z" fill="#37B6D3"/>
<path d="M1.18881 12.8933C1.17638 13.0114 1.16395 13.1233 1.15152 13.2476C1.78544 13.4651 2.40694 13.6888 3.04086 13.8939C3.67478 14.099 4.31492 14.2855 4.94885 14.4781C5.58277 14.6708 6.21048 14.8697 6.83819 15.0686C8.26762 12.5888 9.69085 10.1215 11.1141 7.65413C11.1141 7.64792 11.1016 7.63549 11.1016 7.62927C7.5094 8.74175 3.91717 9.86044 0.3125 10.9791C0.343575 11.0164 0.362219 11.0413 0.380864 11.0661C0.654322 11.4204 0.921564 11.7809 1.19502 12.1351C1.2261 12.1786 1.23853 12.2221 1.23231 12.278C1.21367 12.3837 1.21367 12.4956 1.20745 12.6012C1.20745 12.6944 1.19502 12.7877 1.18881 12.8809V12.8933Z" fill="#37B6D3"/>
<path d="M7.19542 15.0685C8.28925 15.0623 9.38308 15.0561 10.4707 15.0561C11.086 15.0561 11.7013 15.0561 12.3103 15.0623C13.3606 15.0623 14.4048 15.0623 15.4551 15.0623C15.5732 15.0623 15.598 15.025 15.5359 14.9193C15.5359 14.9069 15.5234 14.9007 15.5172 14.8882C14.1313 12.4893 12.7516 10.0903 11.3656 7.69135C11.347 7.66027 11.3284 7.6292 11.3035 7.58569C11.2786 7.6292 11.26 7.66027 11.2413 7.69135C9.85542 10.0903 8.4757 12.4893 7.08977 14.882C7.0214 15.0063 7.0214 15.0561 7.18921 15.0561L7.19542 15.0685Z" fill="#80E7DB"/>
<path d="M19.2071 14.1115C18.1754 14.4408 17.1375 14.7516 16.0996 15.0686C15.938 15.1183 15.7702 15.168 15.59 15.2239C14.2662 18.6732 12.93 22.1474 11.5938 25.6153C11.6 25.6153 11.6062 25.6215 11.6124 25.6277C14.8566 21.5507 18.1008 17.4737 21.345 13.403C21.2953 13.403 21.258 13.4092 21.2207 13.4216C20.5495 13.6516 19.8783 13.8939 19.2008 14.1052L19.2071 14.1115Z" fill="#035880"/>
<path d="M6.84824 15.1866C6.76123 15.1618 6.68044 15.1245 6.59343 15.0934C6.12731 14.9442 5.66119 14.7889 5.19507 14.6521C3.90236 14.273 2.61586 13.8753 1.34802 13.4091C1.32316 13.4029 1.2983 13.3967 1.27344 13.3843C4.50521 17.4737 7.74941 21.5507 10.9936 25.6215C10.9998 25.6215 11.006 25.6153 11.0122 25.6091C9.67604 22.1349 8.34604 18.667 7.00983 15.199C6.94768 15.1928 6.89174 15.1928 6.84202 15.1804L6.84824 15.1866Z" fill="#035880"/>
<path d="M22.4062 11.0787C22.4497 11.029 22.4995 10.9855 22.4435 10.9109C22.4311 10.8984 22.4435 10.8674 22.4435 10.8425C22.4435 10.7244 22.4622 10.6063 22.4622 10.4945C22.4622 9.69896 22.4187 8.90345 22.3689 8.11415C22.3503 7.79719 22.3379 7.48023 22.3316 7.16327C22.3316 7.07626 22.313 7.00789 22.2571 6.94574C22.139 6.81523 22.0271 6.68472 21.9028 6.56042C20.8028 5.4728 19.7276 4.35411 18.6648 3.22299C17.9688 2.48342 17.2665 1.75627 16.6636 0.935895C16.6263 0.886175 16.589 0.87996 16.5455 0.935895C16.5145 0.966969 16.4896 1.00426 16.4585 1.04155C14.8178 3.04897 13.177 5.0564 11.5363 7.07004C11.4617 7.16327 11.3809 7.25649 11.3001 7.35593C11.2628 7.31242 11.238 7.28756 11.2193 7.25649C9.51023 5.16205 7.80112 3.06762 6.09201 0.973185C6.07958 0.95454 6.06715 0.935895 6.0485 0.923465C6.01121 0.89239 5.97392 0.89239 5.94285 0.935895C5.91177 0.973184 5.8807 1.01047 5.84962 1.04776C5.59481 1.40823 5.30271 1.73762 5.00439 2.06701C3.97893 3.21056 2.90996 4.31061 1.84099 5.41065C1.41216 5.85191 0.970896 6.28696 0.53585 6.72822C0.461271 6.8028 0.392906 6.88981 0.324542 6.97682C0.287252 7.02032 0.274822 7.07004 0.274822 7.13219C0.274822 7.29999 0.274822 7.47401 0.268607 7.64182C0.231318 8.3441 0.194029 9.04018 0.162954 9.74247C0.144309 10.1154 0.131879 10.4883 0.162954 10.8612C0.162954 10.8736 0.169169 10.8984 0.162954 10.9047C0.100804 10.9855 0.162954 11.0352 0.206458 11.0911C0.51099 11.4391 0.784447 11.8058 1.04547 12.1849C1.07033 12.216 1.08276 12.2595 1.08276 12.2968C1.06412 12.5703 1.03926 12.8437 1.02062 13.1172C1.02062 13.142 1.0144 13.1731 0.995755 13.1918C0.958466 13.2353 0.977111 13.2726 1.00819 13.3098C1.08898 13.4093 1.16356 13.5025 1.23814 13.6019C3.73033 16.7343 6.22252 19.8666 8.71471 22.9927C9.5413 24.0306 10.3617 25.0623 11.1883 26.1002C11.2007 26.1188 11.2255 26.1437 11.238 26.1375C11.2628 26.1375 11.2815 26.1064 11.3001 26.094C11.3561 26.1561 11.3561 26.1561 11.4058 26.094C11.7352 25.6838 12.0646 25.2674 12.3877 24.8572C14.8426 21.7684 17.3038 18.6858 19.7587 15.5969C20.3553 14.8511 20.9519 14.0991 21.5486 13.3533C21.5921 13.2974 21.648 13.2477 21.5734 13.1669C21.5548 13.1483 21.561 13.111 21.5548 13.0799C21.5361 12.8251 21.5175 12.5703 21.4926 12.3155C21.4926 12.2657 21.4988 12.2222 21.5299 12.1787C21.7972 11.7996 22.0706 11.4267 22.3814 11.0787H22.4062ZM11.4617 7.37457C12.4934 6.11294 13.5189 4.85131 14.5505 3.58967C15.2093 2.78173 15.8681 1.98 16.5207 1.17206C16.5455 1.14099 16.5704 1.11613 16.6015 1.07884C16.6201 1.09127 16.6388 1.1037 16.6512 1.12234C16.993 1.60711 17.397 2.04215 17.801 2.4772C19.0874 3.87556 20.405 5.24285 21.7474 6.58528C21.8842 6.722 22.0085 6.86495 22.139 7.00789C22.1763 7.04518 22.1949 7.0949 22.1949 7.15084C22.2136 7.61074 22.2322 8.07065 22.2571 8.53055C22.2944 9.22041 22.3316 9.91027 22.3192 10.6001C22.3192 10.6934 22.3068 10.7866 22.3006 10.8922C22.1825 10.8549 22.0768 10.8239 21.965 10.7928C19.8767 10.1464 17.7885 9.49387 15.7003 8.84751C14.3082 8.41247 12.9098 7.98364 11.5177 7.54859C11.5114 7.54859 11.5052 7.54859 11.4928 7.54859C11.3623 7.51752 11.3747 7.47401 11.4493 7.387L11.4617 7.37457ZM11.2442 7.70397C11.2628 7.67289 11.2815 7.64182 11.3063 7.59831C11.3312 7.64182 11.3498 7.67289 11.3685 7.70397C12.7544 10.1029 14.1341 12.5019 15.5201 14.9009C15.5201 14.9133 15.5325 14.9195 15.5387 14.9319C15.5947 15.0376 15.576 15.0749 15.4579 15.0749C14.4076 15.0749 13.3635 15.0749 12.3132 15.0749C11.6979 15.0749 11.0826 15.0687 10.4735 15.0687C9.37971 15.0687 8.28588 15.0687 7.19827 15.0811C7.03046 15.0811 7.02425 15.0314 7.09883 14.9071C8.48476 12.5081 9.86448 10.1091 11.2504 7.71639L11.2442 7.70397ZM0.287253 10.3205C0.293467 9.53116 0.343187 8.74186 0.392907 7.94635C0.411551 7.69154 0.417766 7.44294 0.417766 7.18812C0.417766 7.10733 0.436411 7.03897 0.492346 6.98303C0.604214 6.86495 0.709868 6.74065 0.827952 6.62878C2.08959 5.37336 3.32014 4.09308 4.53206 2.78795C4.96089 2.32183 5.37107 1.84328 5.78748 1.36473C5.84341 1.30258 5.88691 1.23421 5.93663 1.16585C5.96149 1.13477 5.98014 1.10991 6.01121 1.07262C6.04229 1.10991 6.06715 1.13477 6.09201 1.16585C7.77626 3.22921 9.4605 5.29257 11.1448 7.35593C11.238 7.4678 11.238 7.49266 11.0888 7.53616C8.73957 8.26331 6.39654 8.99046 4.04729 9.72382C2.84159 10.0967 1.63589 10.4696 0.436411 10.8425C0.399121 10.8549 0.368047 10.8612 0.305897 10.8798C0.305897 10.6809 0.287253 10.4945 0.293468 10.3142L0.287253 10.3205ZM1.15734 13.2539C1.16977 13.1296 1.1822 13.0115 1.19463 12.8997C1.20085 12.8064 1.20706 12.7132 1.21328 12.62C1.21949 12.5081 1.21949 12.4025 1.23814 12.2968C1.24435 12.2409 1.23814 12.1974 1.20085 12.1539C0.927391 11.7996 0.660149 11.4391 0.386691 11.0849C0.368047 11.06 0.349402 11.0352 0.318327 10.9979C3.92299 9.8792 7.51523 8.76672 11.1075 7.64803C11.1075 7.65425 11.1199 7.66668 11.1199 7.67289C9.69667 10.1402 8.27345 12.6076 6.84401 15.0873C6.21631 14.8947 5.58238 14.6958 4.95467 14.4969C4.32075 14.298 3.6744 14.1178 3.04669 13.9127C2.41898 13.7076 1.79748 13.4839 1.15734 13.2663V13.2539ZM11.0018 25.6403C7.75761 21.5695 4.51341 17.4925 1.28164 13.4031C1.3065 13.4093 1.33136 13.4155 1.35622 13.4279C2.62407 13.894 3.91056 14.2856 5.20327 14.6709C5.66939 14.8076 6.13551 14.963 6.60163 15.1122C6.68864 15.137 6.76944 15.1805 6.85644 15.2054C6.90616 15.2178 6.9621 15.2178 7.02425 15.224C8.35425 18.692 9.69046 22.1599 11.0267 25.6341C11.0205 25.6341 11.0142 25.6403 11.008 25.6465L11.0018 25.6403ZM11.412 25.864C11.412 25.864 11.3934 25.9137 11.3809 25.9386C11.3747 25.951 11.3685 25.9635 11.3561 25.9759C11.3436 25.9883 11.3312 26.007 11.3063 26.038C11.2691 25.9697 11.238 25.92 11.2193 25.864C10.6041 24.2668 9.99499 22.6695 9.37971 21.0785C8.64635 19.1643 7.91298 17.2563 7.17341 15.3421C7.16098 15.3048 7.14855 15.2675 7.1299 15.2116C9.92663 15.1992 12.7047 15.1992 15.4766 15.2116C15.4828 15.2178 15.489 15.224 15.489 15.224C15.489 15.224 15.489 15.2303 15.489 15.2365C14.1279 18.779 12.7731 22.3215 11.412 25.8702V25.864ZM11.6233 25.6403C11.6233 25.6403 11.6109 25.6341 11.6047 25.6279C12.9409 22.1537 14.2709 18.6858 15.6009 15.2365C15.7811 15.1805 15.9427 15.1308 16.1105 15.0811C17.1484 14.7641 18.1863 14.4534 19.218 14.124C19.8954 13.9065 20.5666 13.6703 21.2378 13.4404C21.2751 13.4279 21.3124 13.4155 21.3621 13.4217C18.1179 17.4987 14.8737 21.5757 11.6295 25.6465L11.6233 25.6403ZM21.4118 12.6821C21.4181 12.794 21.4367 12.9059 21.4491 13.0177C21.4553 13.0923 21.4616 13.1669 21.4678 13.2477C21.3248 13.2974 21.1881 13.3533 21.0514 13.4031C19.9202 13.8133 18.7767 14.1675 17.6269 14.5093C17.0552 14.6771 16.4896 14.8636 15.924 15.0376C15.8805 15.05 15.837 15.0625 15.7873 15.0749C14.3641 12.6013 12.9347 10.134 11.5114 7.66046C11.5114 7.65425 11.5239 7.64803 11.5239 7.64182C15.1161 8.75429 18.7083 9.87298 22.313 10.9917C22.2881 11.029 22.2695 11.0538 22.2509 11.0787C21.9774 11.4391 21.7039 11.7996 21.4305 12.1601C21.3994 12.2036 21.387 12.2409 21.3932 12.2968C21.4118 12.4273 21.4056 12.5578 21.4181 12.6883L21.4118 12.6821Z" fill="#020911"/>
</svg>
