<svg width="18" height="30" viewBox="0 0 18 30" fill="none" xmlns="http://www.w3.org/2000/svg">
<path d="M13.1524 19.9495C13.0405 19.9993 12.9349 20.0552 12.823 20.0987C11.8224 20.5151 10.8156 20.9315 9.80878 21.3479C9.56639 21.4473 9.32401 21.5592 9.08163 21.6711C9.03813 21.6897 9.00084 21.7022 8.95112 21.6835C7.88836 21.236 6.82561 20.7886 5.76285 20.3473C5.52047 20.2479 5.2843 20.1422 5.04192 20.0366C4.97977 20.0117 4.92383 19.9806 4.85547 19.9433C4.88033 19.8253 4.90519 19.7134 4.93005 19.6015C5.06678 18.9552 5.20972 18.3088 5.35266 17.6687C5.36509 17.619 5.38374 17.5754 5.4086 17.5319C6.58322 15.8912 7.75785 14.2504 8.93247 12.6097C8.95112 12.5786 8.97598 12.5538 9.00705 12.5165C9.03191 12.5476 9.05677 12.5786 9.08163 12.6035C10.2625 14.2505 11.4371 15.8912 12.6117 17.5382C12.6366 17.5692 12.6552 17.6127 12.6614 17.65C12.823 18.402 12.9908 19.1478 13.1524 19.8998C13.1524 19.9123 13.1524 19.9247 13.1524 19.9558V19.9495Z" fill="#37B6D3"/>
<path d="M5.43661 17.271C5.5547 16.7179 5.67278 16.171 5.79086 15.6178C5.90895 15.0709 6.02703 14.524 6.14512 13.9771C6.2632 13.4302 6.3875 12.877 6.50558 12.3301C6.62367 11.7832 6.73554 11.2363 6.85362 10.6894C6.9717 10.1362 7.096 9.58311 7.21409 9.03619C7.33217 8.48928 7.45025 7.94237 7.56834 7.39546C7.68642 6.84233 7.80451 6.2892 7.92259 5.74228C8.04067 5.19537 8.15876 4.64844 8.27684 4.10153C8.39492 3.5484 8.51922 3.0015 8.63731 2.44837C8.75539 1.90146 8.87347 1.35453 8.99156 0.807617H9.01642C9.1345 1.36075 9.25259 1.90766 9.37067 2.46079C9.48875 3.00771 9.60684 3.55461 9.72492 4.10153C9.84301 4.65466 9.96109 5.20779 10.0854 5.7547C10.2035 6.30162 10.3216 6.84854 10.4396 7.39546C10.5577 7.94859 10.682 8.50172 10.8001 9.04864C10.9182 9.59555 11.0363 10.1425 11.1544 10.6894C11.2724 11.2425 11.3843 11.7956 11.5024 12.3425C11.6205 12.8895 11.7448 13.4364 11.8629 13.9771C11.9809 14.5302 12.1052 15.0833 12.2233 15.6303C12.3414 16.1772 12.4595 16.7241 12.5776 17.2834C12.4533 17.1591 9.08478 12.442 9.04749 12.3425C8.98534 12.3239 8.94184 12.3177 8.92319 12.4047C8.92319 12.4358 8.88591 12.4668 8.86105 12.4979C7.74236 14.0579 6.62367 15.6178 5.51119 17.1778C5.48633 17.2088 5.46147 17.2399 5.43661 17.271C5.43661 17.271 5.42418 17.271 5.41797 17.2648L5.43661 17.271Z" fill="#80E7DB"/>
<path d="M17.2247 16.5623C17.1128 16.6555 17.0071 16.7487 16.9015 16.8295C16.5659 17.0843 16.2241 17.3267 15.9009 17.594C15.4223 17.9979 14.9562 18.4205 14.4839 18.8307C14.1172 19.1539 13.7381 19.4709 13.3652 19.7878C13.3341 19.8127 13.303 19.8376 13.2533 19.8686C13.2222 19.7257 13.1912 19.5952 13.1601 19.4709C12.7002 17.3391 12.2403 15.2136 11.7804 13.0819C11.7369 12.8706 11.6872 12.6593 11.6437 12.448C11.625 12.3796 11.6312 12.3113 11.6561 12.2429C12.116 11.0621 12.5759 9.87501 13.042 8.69417C13.0544 8.66931 13.0669 8.64445 13.0917 8.59473C14.4715 11.2609 15.845 13.9023 17.2247 16.5623Z" fill="#80E7DB"/>
<path d="M4.93141 8.58862C4.96248 8.66942 4.98734 8.71914 5.00599 8.76886C5.45346 9.91863 5.90094 11.0684 6.34841 12.2119C6.37949 12.299 6.39192 12.3735 6.36706 12.4668C5.86986 14.7601 5.37267 17.0534 4.88169 19.3405C4.85061 19.4896 4.81954 19.6326 4.78846 19.7755C4.78846 19.8004 4.76982 19.8315 4.75739 19.8688C4.70145 19.8253 4.65795 19.7942 4.61445 19.7569C3.99917 19.2224 3.37767 18.6941 2.77482 18.1534C2.25277 17.6811 1.69342 17.2585 1.13408 16.8359C1.02221 16.7551 0.916556 16.6556 0.804688 16.5624C2.1844 13.9024 3.55169 11.261 4.93762 8.58862H4.93141Z" fill="#80E7DB"/>
<path d="M9.00662 21.8638C10.0569 23.4051 11.0948 24.9215 12.1389 26.4504C12.0892 26.5001 12.0457 26.5436 11.996 26.5871C11.648 26.8917 11.2999 27.19 10.9581 27.5007C10.4236 27.9731 9.92643 28.4765 9.44166 28.9923C9.29872 29.1415 9.15578 29.2906 9.0004 29.4522C8.04952 28.3646 6.98055 27.4137 5.89915 26.4752C5.89915 26.4752 5.89915 26.4628 5.88672 26.4442C6.9184 24.9277 7.95629 23.4051 9.00662 21.87V21.8638Z" fill="#035880"/>
<path d="M5.84045 26.3076C5.71615 25.742 5.54835 25.2199 5.38054 24.6979C5.2811 24.3996 5.17545 24.1137 5.06358 23.8216C5.03251 23.747 5.00765 23.6662 4.96414 23.5979C4.89578 23.4922 4.87713 23.3865 4.87713 23.2685C4.87092 22.5413 4.85849 21.8142 4.85227 21.087C4.85227 20.7701 4.84606 20.4531 4.83984 20.1423C4.83984 20.1237 4.83984 20.105 4.83984 20.074C4.87092 20.0802 4.89578 20.0864 4.91442 20.0988C6.01447 20.5587 7.12073 21.0187 8.22077 21.4786C8.45694 21.578 8.68068 21.6836 8.91063 21.7831C8.91063 21.7955 8.91063 21.8017 8.91063 21.8017C8.91063 21.8017 8.91063 21.8079 8.91063 21.8142C7.90381 23.2933 6.89699 24.7725 5.89017 26.2516C5.87774 26.2703 5.86531 26.2827 5.83423 26.32L5.84045 26.3076Z" fill="#80E7DB"/>
<path d="M9.08203 21.7707C10.4431 21.2051 11.798 20.6395 13.159 20.0677C13.159 20.0802 13.1652 20.0926 13.1652 20.1113C13.1652 20.9813 13.1528 21.8577 13.1466 22.7277C13.1466 22.9453 13.1342 23.1566 13.1217 23.3741C13.1217 23.4238 13.1031 23.4673 13.0845 23.5171C13.0347 23.6289 12.9726 23.7346 12.9353 23.8464C12.637 24.642 12.3697 25.4437 12.1771 26.2703C12.1771 26.2765 12.1709 26.2827 12.1646 26.2889C12.0963 26.233 9.16904 21.9571 9.08203 21.7769V21.7707Z" fill="#80E7DB"/>
<path d="M6.4131 12.1063C5.94076 10.8944 5.46843 9.68873 4.99609 8.46438C6.25773 6.02813 7.52558 3.58565 8.79342 1.13696C8.79964 1.13696 8.80585 1.13697 8.81828 1.14318C8.02898 4.79757 7.23969 8.44574 6.45039 12.1001H6.41931L6.4131 12.1063Z" fill="#37B6D3"/>
<path d="M9.22017 1.13074C10.488 3.57942 11.7559 6.02191 13.0175 8.46438C12.5452 9.68251 12.0728 10.8944 11.6005 12.1063C11.5881 12.1063 11.5818 12.1063 11.5694 12.1063C10.7801 8.45194 9.99082 4.79756 9.19531 1.14318C9.20153 1.14318 9.20774 1.14317 9.21396 1.13696L9.22017 1.13074Z" fill="#37B6D3"/>
<path d="M0.722656 16.6804C0.759946 16.6804 0.766161 16.6804 0.772376 16.6866C1.12663 16.9601 1.48088 17.2211 1.8227 17.5008C2.22667 17.8302 2.61821 18.1782 3.01597 18.52C3.38265 18.837 3.74312 19.1664 4.1098 19.4833C4.28382 19.6387 4.46405 19.7817 4.6505 19.9246C4.70643 19.9681 4.72508 20.0116 4.72508 20.08C4.72508 20.6704 4.73129 21.2608 4.73751 21.8513C4.73751 22.2987 4.74994 22.7462 4.76237 23.1937C4.76237 23.2185 4.76237 23.2372 4.75615 23.2931C4.68779 23.2123 4.63807 23.1564 4.58835 23.1004C4.07872 22.479 3.5691 21.8512 3.06569 21.2235C2.50634 20.5337 1.95943 19.8376 1.40008 19.1415C1.282 18.9986 1.19499 18.8432 1.13284 18.6692C0.940179 18.1409 0.82831 17.594 0.759946 17.0347C0.747516 16.9228 0.735086 16.8047 0.722656 16.6804Z" fill="#035880"/>
<path d="M13.2523 23.2932C13.2523 23.2435 13.2461 23.2249 13.2461 23.2062C13.2523 22.4666 13.2585 21.7271 13.271 20.9875C13.271 20.6767 13.2834 20.366 13.2834 20.0552C13.2834 20.0117 13.2958 19.9807 13.3331 19.9496C14.0603 19.3778 14.7439 18.7439 15.4338 18.1286C15.8253 17.7744 16.2417 17.4512 16.6643 17.1342C16.8508 16.9913 17.0372 16.8421 17.2237 16.6992C17.2361 16.693 17.2485 16.6867 17.2734 16.6681C17.2734 16.7054 17.2796 16.7365 17.2796 16.7613C17.2112 17.4388 17.0931 18.11 16.8445 18.7501C16.7886 18.893 16.7016 19.0236 16.6084 19.1416C15.9682 19.9434 15.3343 20.7451 14.688 21.5468C14.2529 22.0875 13.8054 22.6282 13.358 23.1627C13.3269 23.2 13.2958 23.2311 13.2461 23.287L13.2523 23.2932Z" fill="#035880"/>
<path d="M17.4259 16.7303C17.3575 17.4263 17.2394 18.0851 17.0095 18.719C16.9411 18.8993 16.8541 19.0671 16.736 19.2162C16.0648 20.0615 15.3936 20.9067 14.7162 21.7519C14.2998 22.2678 13.8772 22.7836 13.4483 23.2932C13.2743 23.4983 13.1376 23.7221 13.0444 23.9769C12.7833 24.704 12.5347 25.4374 12.3483 26.1832C12.3359 26.2267 12.3234 26.2702 12.3234 26.3199C12.311 26.4753 12.2302 26.5872 12.1121 26.6866C11.7144 27.0346 11.3104 27.3702 10.9251 27.7307C10.4776 28.1533 10.0488 28.5884 9.61371 29.0234C9.42726 29.2099 9.25946 29.4087 9.08544 29.6014C9.02951 29.6636 8.986 29.6573 8.93007 29.6014C8.18427 28.7562 7.38255 27.9669 6.5311 27.2335C6.31979 27.0533 6.1147 26.8668 5.89718 26.6866C5.78531 26.5934 5.71694 26.4753 5.69208 26.3323C5.58643 25.7668 5.39998 25.2261 5.21975 24.6792C5.13895 24.4368 5.04573 24.2006 4.96494 23.9645C4.88414 23.7283 4.75363 23.5232 4.59825 23.3305C3.8276 22.3858 3.06316 21.4412 2.29251 20.4965C1.9569 20.0801 1.62751 19.6575 1.2919 19.2411C1.17382 19.0919 1.0806 18.9241 1.01223 18.7439C0.80714 18.1846 0.689056 17.6128 0.620691 17.0224C0.577187 16.6743 0.583402 16.6681 0.744991 16.3574C3.42985 11.1741 6.12091 5.99085 8.80577 0.807586C8.83063 0.764082 8.85549 0.720583 8.87413 0.677078C8.89899 0.614929 8.93628 0.577637 9.01086 0.577637C9.08544 0.577637 9.1103 0.614923 9.14137 0.670857C9.64478 1.64039 10.142 2.60991 10.6454 3.57944C12.8579 7.84911 15.0704 12.1188 17.2829 16.3884C17.3265 16.4692 17.3762 16.5562 17.4135 16.6433C17.4321 16.6805 17.4259 16.7303 17.4259 16.7489V16.7303ZM13.15 19.9496C13.15 19.9496 13.15 19.9061 13.15 19.8937C12.9884 19.1417 12.8268 18.3959 12.659 17.6439C12.6528 17.6066 12.6342 17.5631 12.6093 17.532C11.4347 15.885 10.2538 14.2443 9.07923 12.5973C9.06058 12.5663 9.03572 12.5414 9.00465 12.5103C8.97357 12.5476 8.95493 12.5787 8.93007 12.6035C7.75544 14.2443 6.58082 15.885 5.4062 17.5258C5.38134 17.5631 5.35648 17.6128 5.35026 17.6625C5.20732 18.3089 5.07059 18.949 4.92765 19.5954C4.90279 19.7072 4.87793 19.8191 4.85307 19.9372C4.92143 19.9682 4.97737 19.9993 5.03952 20.0304C5.2819 20.136 5.51806 20.2417 5.76045 20.3411C6.8232 20.7886 7.88596 21.2299 8.94871 21.6774C8.99843 21.696 9.03572 21.6898 9.07923 21.6649C9.32161 21.5531 9.56399 21.4474 9.80637 21.3418C10.807 20.9254 11.8138 20.5089 12.8206 20.0925C12.9325 20.049 13.0381 19.9931 13.15 19.9434V19.9496ZM5.43106 17.2772C5.43106 17.2772 5.44349 17.2772 5.4497 17.2834C5.47456 17.2523 5.49942 17.2213 5.52428 17.1902C6.64297 15.6302 7.76166 14.0703 8.87413 12.5103C8.89278 12.4793 8.93007 12.4482 8.93628 12.4171C8.94871 12.3301 8.99843 12.3363 9.06058 12.355C9.09787 12.4544 12.4664 17.1715 12.5907 17.2958C12.4726 16.7365 12.3545 16.1896 12.2364 15.6426C12.1183 15.0895 12.0002 14.5364 11.8759 13.9895C11.7579 13.4426 11.6336 12.9019 11.5155 12.355C11.3974 11.8018 11.2855 11.2487 11.1674 10.7018C11.0494 10.1549 10.9313 9.60794 10.8132 9.06103C10.6951 8.5079 10.5708 7.95476 10.4527 7.40785C10.3346 6.86093 10.2166 6.31403 10.0985 5.76711C9.98039 5.21399 9.86231 4.66085 9.73801 4.11394C9.61993 3.56702 9.50184 3.0201 9.38376 2.47319C9.26567 1.92006 9.14759 1.37314 9.02951 0.820009H9.00465C8.88656 1.36692 8.76848 1.91385 8.6504 2.46076C8.53231 3.01389 8.40801 3.56081 8.28993 4.11394C8.17184 4.66085 8.05376 5.20776 7.93568 5.75467C7.81759 6.3078 7.69951 6.86093 7.58143 7.40785C7.46334 7.95476 7.34526 8.50169 7.22717 9.0486C7.10909 9.60173 6.98479 10.1486 6.86671 10.7018C6.74862 11.2487 6.63675 11.7956 6.51867 12.3425C6.40059 12.8894 6.27629 13.4426 6.1582 13.9895C6.04012 14.5364 5.92204 15.0833 5.80395 15.6302C5.68587 16.1834 5.56778 16.7303 5.4497 17.2834L5.43106 17.2772ZM17.2208 16.5687C15.8411 13.9025 14.4676 11.2611 13.0879 8.60113C13.063 8.65085 13.0506 8.67571 13.0381 8.70057C12.5782 9.88141 12.1183 11.0685 11.6522 12.2493C11.6274 12.3177 11.6211 12.386 11.6398 12.4544C11.6895 12.6657 11.733 12.877 11.7765 13.0883C12.2364 15.22 12.6963 17.3455 13.1562 19.4773C13.1811 19.6078 13.2122 19.7321 13.2495 19.875C13.293 19.8439 13.3302 19.8191 13.3613 19.7942C13.7342 19.4773 14.1071 19.1603 14.48 18.8371C14.9523 18.4269 15.4185 18.0043 15.897 17.6003C16.2202 17.3331 16.562 17.0907 16.8976 16.8359C17.0033 16.7551 17.1089 16.6619 17.2208 16.5687ZM4.92765 8.5949C3.54171 11.2673 2.17443 13.9087 0.79471 16.5687C0.912794 16.6681 1.01223 16.7613 1.1241 16.8421C1.68966 17.2585 2.24279 17.6874 2.76485 18.1597C3.3677 18.7066 3.98919 19.2287 4.60447 19.7632C4.64797 19.8004 4.69148 19.8315 4.74741 19.875C4.75984 19.8377 4.77227 19.8067 4.77849 19.7818C4.80956 19.6389 4.84064 19.4897 4.87171 19.3468C5.36891 17.0534 5.85989 14.7601 6.35708 12.473C6.37573 12.3798 6.36951 12.3052 6.33844 12.2182C5.89096 11.0685 5.44349 9.91869 4.99601 8.77514C4.97737 8.72542 4.95251 8.6757 4.92143 8.5949H4.92765ZM9.01086 21.87C7.96054 23.4051 6.92264 24.9278 5.89096 26.4442C5.89718 26.4629 5.89718 26.4753 5.90339 26.4753C6.98479 27.4199 8.05376 28.3708 9.00465 29.4522C9.16002 29.2907 9.30296 29.1477 9.44591 28.9923C9.93689 28.4765 10.4279 27.9669 10.9624 27.5008C11.3104 27.1962 11.6584 26.8917 12.0002 26.5872C12.05 26.5437 12.0935 26.4939 12.1432 26.4504C11.0991 24.9216 10.0612 23.3989 9.01086 21.8638V21.87ZM5.84124 26.3137C5.87232 26.2764 5.88475 26.264 5.89718 26.2453C6.904 24.7662 7.91082 23.287 8.91764 21.8079C8.91764 21.8079 8.91764 21.8016 8.91764 21.7954C8.91764 21.7954 8.91764 21.7892 8.91764 21.7768C8.6939 21.6773 8.46395 21.5717 8.22778 21.4723C7.12773 21.0124 6.02148 20.5524 4.92143 20.0925C4.90279 20.0863 4.87793 20.0801 4.84685 20.0677C4.84685 20.0988 4.84685 20.1174 4.84685 20.1361C4.84685 20.453 4.85307 20.77 4.85928 21.0807C4.8655 21.8079 4.87793 22.535 4.88414 23.2622C4.88414 23.3802 4.90279 23.4921 4.97115 23.5916C5.01465 23.6599 5.04573 23.7407 5.07059 23.8153C5.17624 24.1074 5.28811 24.3995 5.38755 24.6916C5.56157 25.2136 5.72937 25.7419 5.84746 26.3013L5.84124 26.3137ZM9.09166 21.7768C9.17867 21.9508 12.1059 26.2329 12.1743 26.2888C12.1743 26.2826 12.1867 26.2764 12.1867 26.2702C12.3731 25.4436 12.6466 24.6419 12.9449 23.8464C12.9884 23.7345 13.0506 23.6288 13.0941 23.517C13.1127 23.4735 13.1314 23.4237 13.1314 23.374C13.1438 23.1565 13.15 22.9452 13.1562 22.7277C13.1624 21.8576 13.1687 20.9813 13.1749 20.1112C13.1749 20.0988 13.1749 20.0801 13.1687 20.0677C11.8076 20.6332 10.4527 21.1988 9.09166 21.7706V21.7768ZM6.41302 12.1063H6.44409C7.23339 8.45196 8.02269 4.79758 8.81198 1.1432C8.80577 1.1432 8.79955 1.14319 8.78712 1.13698C7.51928 3.58566 6.25143 6.02814 4.9898 8.4644C5.46835 9.68874 5.94068 10.8944 6.4068 12.1063H6.41302ZM9.22217 1.13076C9.22217 1.13076 9.20974 1.13076 9.20353 1.13698C9.99282 4.79136 10.7821 8.44576 11.5776 12.1001C11.5901 12.1001 11.5963 12.1001 11.6087 12.1001C12.081 10.8882 12.5534 9.6763 13.0257 8.45818C11.7579 6.0157 10.4962 3.57324 9.22838 1.12455L9.22217 1.13076ZM0.726345 16.6805C0.738775 16.8048 0.751205 16.9229 0.763635 17.0348C0.831999 17.5941 0.943868 18.141 1.13653 18.6693C1.19868 18.8433 1.28569 18.9987 1.40377 19.1417C1.9569 19.8377 2.51003 20.5338 3.06938 21.2237C3.57279 21.8514 4.08863 22.4729 4.59204 23.1006C4.64176 23.1627 4.69148 23.2187 4.75984 23.2932C4.75984 23.2435 4.76606 23.2187 4.76606 23.1938C4.75984 22.7463 4.74741 22.2989 4.7412 21.8514C4.73498 21.261 4.72877 20.6705 4.72877 20.0801C4.72877 20.0118 4.70391 19.9683 4.65419 19.9247C4.46774 19.7818 4.28751 19.6388 4.11349 19.4835C3.74681 19.1665 3.38634 18.8371 3.01966 18.5202C2.62812 18.1783 2.23036 17.8303 1.82639 17.5009C1.48457 17.2213 1.1241 16.954 0.776065 16.6867C0.776065 16.6867 0.763635 16.6868 0.726345 16.6805ZM13.2495 23.2932C13.2992 23.2373 13.3302 23.2062 13.3613 23.1689C13.8026 22.6282 14.2501 22.0938 14.6913 21.5531C15.3315 20.7513 15.9716 19.9496 16.6117 19.1479C16.7112 19.0298 16.792 18.8993 16.8479 18.7563C17.0903 18.1162 17.2146 17.445 17.2829 16.7675C17.2829 16.7427 17.2829 16.7116 17.2767 16.6743C17.2519 16.6868 17.2394 16.693 17.227 16.7054C17.0406 16.8484 16.8603 17.0037 16.6677 17.1404C16.2451 17.4574 15.8287 17.7806 15.4371 18.1348C14.7473 18.7501 14.0698 19.384 13.3365 19.9558C13.2992 19.9869 13.2867 20.018 13.2867 20.0615C13.2867 20.3722 13.2743 20.683 13.2743 20.9937C13.2681 21.7333 13.2557 22.4729 13.2495 23.2124C13.2495 23.2311 13.2495 23.2497 13.2557 23.2995L13.2495 23.2932Z" fill="#020911"/>
</svg>
