<svg width="21" height="28" viewBox="0 0 21 28" fill="none" xmlns="http://www.w3.org/2000/svg">
<path d="M20.3055 13.9319C20.3055 13.9319 20.2868 13.8759 20.2682 13.8262C20.2184 13.9008 20.1749 13.9629 20.1377 14.0251C20.0009 14.2426 19.8704 14.4601 19.7275 14.6714C19.2924 15.3302 18.8014 15.9455 18.2172 16.48C17.7263 16.9275 17.1669 17.2444 16.5081 17.3625C16.3714 17.3874 16.2347 17.3998 16.0979 17.4184C16.0482 17.4184 16.0047 17.406 15.9799 17.3501C15.9612 17.3004 15.9799 17.2631 16.0171 17.232C16.0669 17.1823 16.1166 17.1388 16.1725 17.0953C16.62 16.7224 17.055 16.3308 17.459 15.9082C17.9935 15.3489 18.3975 14.7087 18.7082 14.0064C18.9009 13.5714 18.9879 13.1239 18.9444 12.6516C18.9195 12.3595 18.8822 12.0612 18.8512 11.7691C18.8263 11.5453 18.8263 11.3154 18.8512 11.0916C18.8698 10.9673 18.8885 10.8493 18.9071 10.725C18.8885 10.725 18.8822 10.725 18.8822 10.725C18.8698 10.725 18.8574 10.7374 18.8449 10.7436C18.6647 10.8493 18.5653 11.0171 18.5093 11.2097C18.4161 11.5143 18.3229 11.8126 18.2172 12.1171C18.0308 12.6516 17.776 13.1426 17.3969 13.5652C17.2353 13.7454 17.055 13.8946 16.8375 13.994C16.7319 14.0437 16.6262 14.1059 16.5019 14.1183C16.216 14.1432 15.9364 14.2115 15.6567 14.2985C15.1036 14.4726 14.6188 14.7647 14.221 15.1873C13.7673 15.6596 13.382 16.1879 13.0775 16.7721C12.978 16.9585 12.8848 17.1512 12.8165 17.3501C12.3441 18.8106 11.6356 20.153 10.7593 21.4022C10.7096 21.4706 10.6474 21.5265 10.5853 21.5824C10.5169 21.6384 10.461 21.6384 10.3864 21.5824C10.3243 21.5327 10.2683 21.4768 10.2186 21.4084C10.1378 21.2966 10.057 21.1785 9.98244 21.0666C9.31123 20.066 8.74567 19.0095 8.33548 17.8721C8.24847 17.6422 8.17389 17.406 8.08067 17.1761C7.93151 16.7907 7.71399 16.4365 7.48403 16.0947C7.22301 15.7156 6.93712 15.3551 6.5953 15.0381C6.04838 14.5223 5.37717 14.2675 4.64381 14.1432C4.51329 14.1245 4.38899 14.1121 4.26469 14.0624C3.99124 13.9505 3.7675 13.7889 3.57484 13.5776C3.2703 13.242 3.04035 12.8629 2.87876 12.4465C2.72339 12.0487 2.59909 11.6385 2.46236 11.2346C2.41886 11.1103 2.37535 10.9984 2.28834 10.8928C2.22619 10.8182 2.15783 10.7622 2.05218 10.7125C2.05839 10.7685 2.06461 10.812 2.07082 10.8493C2.12676 11.1103 2.15162 11.3775 2.12676 11.6448C2.1019 11.9617 2.06461 12.2787 2.03353 12.5894C1.99003 13.0058 2.03353 13.416 2.18269 13.8076C2.47479 14.5596 2.87876 15.2432 3.43189 15.8336C3.86072 16.2997 4.33306 16.7224 4.81782 17.1201C4.86754 17.1636 4.91726 17.2071 4.96077 17.2569C5.02292 17.3377 4.99184 17.4184 4.88619 17.4309C4.84268 17.4309 4.79918 17.4309 4.75568 17.4309C4.3082 17.3687 3.87937 17.2506 3.48161 17.0269C3.12736 16.828 2.81661 16.567 2.52451 16.2811C2.00246 15.7653 1.5612 15.1873 1.16344 14.572C1.03293 14.3669 0.902412 14.1556 0.771898 13.9505C0.753253 13.9194 0.734608 13.8697 0.684888 13.8573C0.579234 14.224 0.510871 14.5906 0.473581 14.9698C0.436291 15.3675 0.442506 15.7653 0.454936 16.163C0.467366 16.5235 0.504656 16.8777 0.57302 17.2258C0.684889 17.7913 0.865122 18.3383 1.07643 18.879C1.49283 19.9604 2.08947 20.9423 2.78554 21.8621C3.81722 23.217 5.04156 24.3854 6.39642 25.4109C7.37838 26.1566 8.44113 26.7471 9.59711 27.1697C9.77735 27.238 9.95758 27.294 10.144 27.3251C10.2559 27.3437 10.374 27.2878 10.4734 27.3623C10.4734 27.3623 10.4921 27.3499 10.4983 27.3437C10.5231 27.3375 10.548 27.3251 10.5729 27.3251C10.8028 27.3499 11.0141 27.2816 11.2254 27.2132C12.0831 26.9149 12.891 26.5171 13.6617 26.0261C14.6374 25.4046 15.5262 24.6651 16.359 23.8633C17.1048 23.1424 17.8008 22.378 18.4037 21.5265C19.0811 20.5756 19.6467 19.5688 20.0258 18.4626C20.1936 17.9778 20.3427 17.4806 20.4173 16.971C20.4733 16.5981 20.4919 16.219 20.5043 15.8336C20.5168 15.1935 20.467 14.5596 20.293 13.9381L20.3055 13.9319Z" fill="#D79D1E"/>
<path d="M8.12578 7.145C8.30601 7.38738 8.49246 7.62976 8.64784 7.89079C9.10153 8.65523 9.31283 9.48182 9.28176 10.3706C9.26933 10.7683 9.23204 11.1661 9.20718 11.5638C9.20097 11.7192 9.19475 11.8746 9.18854 12.0299C9.20097 12.0299 9.20718 12.0299 9.21961 12.0362C9.28798 11.9491 9.35634 11.8621 9.4247 11.7814C9.72924 11.4209 10.04 11.0604 10.3445 10.6937C10.3694 10.6627 10.4004 10.6316 10.3942 10.5819C10.388 10.5197 10.4191 10.5011 10.4812 10.5011C10.5372 10.5011 10.5745 10.5259 10.562 10.5756C10.5496 10.6316 10.5807 10.6627 10.6118 10.6999C10.9784 11.135 11.3451 11.57 11.7118 12.0051C11.7242 12.0175 11.7367 12.0237 11.7677 12.0424C11.7553 11.7938 11.7491 11.5638 11.7304 11.3339C11.7118 11.0107 11.6807 10.6937 11.6683 10.3706C11.6434 9.74906 11.7553 9.14621 11.979 8.56201C12.1593 8.08345 12.4327 7.65463 12.7435 7.25687C12.9424 6.99585 13.1475 6.73481 13.3463 6.47378C13.5203 6.24383 13.6509 5.9828 13.7565 5.71556C13.7689 5.68449 13.7752 5.65341 13.7814 5.64099C13.6757 5.59127 13.5763 5.54776 13.4768 5.50426C13.3961 5.46075 13.3215 5.41104 13.2407 5.37375C12.8616 5.1873 12.5384 4.92627 12.2339 4.63417C11.6869 4.11211 11.3265 3.49061 11.1276 2.76346C11.0654 2.53351 11.0095 2.29735 10.9536 2.06118C10.8666 1.70072 10.7485 1.35267 10.5496 1.03571C10.531 1.00464 10.5061 0.973569 10.4812 0.936279C10.4626 0.954924 10.4502 0.967349 10.444 0.979779C10.3134 1.20352 10.1829 1.42726 10.1146 1.68207C10.0338 1.99282 9.95297 2.30356 9.87218 2.61431C9.56765 3.82623 8.85914 4.72739 7.77153 5.34267C7.69074 5.38617 7.60373 5.43589 7.52293 5.4794C7.41106 5.54155 7.29919 5.61612 7.15625 5.62855C7.27433 5.93308 7.41106 6.21897 7.60373 6.47378C7.77153 6.70374 7.95176 6.92127 8.11957 7.15122L8.12578 7.145Z" fill="#D79D1E"/>
<path d="M11.4349 11.8498C11.1365 11.4893 10.832 11.1351 10.5275 10.7808C10.5151 10.7622 10.4964 10.7497 10.4778 10.7311C10.4467 10.7622 10.4218 10.7932 10.397 10.8243C10.31 10.93 10.2167 11.0356 10.1297 11.1413C9.73197 11.6012 9.33422 12.0611 8.99861 12.5769C8.51384 13.3103 8.19067 14.112 8.03529 14.9759C7.97314 15.3053 7.9545 15.6347 7.99179 15.9703C8.04151 16.4177 8.14095 16.8528 8.27768 17.2816C8.65679 18.4935 9.20992 19.6247 9.89978 20.6936C10.0365 20.9049 10.1794 21.1162 10.3224 21.3213C10.3659 21.3897 10.4156 21.4519 10.4964 21.4829C10.5958 21.4332 10.6518 21.3462 10.7077 21.2592C11.0806 20.7123 11.4349 20.1529 11.7394 19.5687C12.249 18.5992 12.6654 17.5924 12.9016 16.5234C13.0072 16.0448 13.0321 15.5725 12.9637 15.0877C12.9016 14.6713 12.7835 14.2736 12.6406 13.882C12.3671 13.13 11.9507 12.465 11.4473 11.856L11.4349 11.8498ZM11.0868 16.6601C10.9563 17.1884 10.8258 17.7167 10.6891 18.2387C10.6518 18.3755 10.6021 18.4998 10.5586 18.6365C10.5461 18.68 10.5213 18.7111 10.4778 18.7111C10.4343 18.7111 10.4156 18.6738 10.4032 18.6303C10.2043 18.0833 10.08 17.5116 9.94328 16.9398C9.8687 16.6291 9.80034 16.3121 9.73819 16.0013C9.64496 15.5166 9.66982 15.0442 9.8687 14.5843C10.0489 14.1742 10.2354 13.764 10.4218 13.3538C10.4343 13.3289 10.4591 13.3103 10.4778 13.2916C10.4964 13.3103 10.5275 13.3227 10.5337 13.3476C10.7637 13.8385 11.0123 14.3171 11.1738 14.8329C11.2422 15.0505 11.2795 15.2928 11.2671 15.4917C11.2608 15.8895 11.1738 16.2748 11.0806 16.6539L11.0868 16.6601Z" fill="#37B6D3"/>
<path d="M6.87727 15.1871C7.26881 15.6097 7.61063 16.0759 7.89652 16.5793C7.91517 16.6103 7.94003 16.6476 7.95867 16.6849C7.96489 16.6725 7.9711 16.6663 7.9711 16.6601C7.9711 16.6414 7.96489 16.6228 7.95867 16.6041C7.82194 16.0261 7.79708 15.4419 7.92138 14.8577C8.11405 13.9317 8.47451 13.074 9.02764 12.3096C9.08979 12.2226 9.14573 12.148 9.10844 12.0361C9.10844 12.0237 9.10844 12.0051 9.10844 11.9926C9.12708 11.6384 9.13951 11.2841 9.16437 10.9299C9.19545 10.5259 9.2203 10.1219 9.16437 9.71797C9.07115 8.95353 8.81012 8.24504 8.35643 7.61733C8.11404 7.28172 7.85923 6.95854 7.61064 6.63537C7.39311 6.35569 7.22531 6.04494 7.0948 5.70934C7.02643 5.54153 6.95807 5.37994 6.87727 5.19971C6.85863 5.22457 6.8462 5.237 6.83998 5.24943C6.7654 5.42966 6.67839 5.59746 6.61624 5.78391C6.51681 6.07602 6.51059 6.38055 6.57896 6.67887C6.65353 6.99583 6.7654 7.30036 6.88349 7.6049C7.02022 7.94672 7.15694 8.28854 7.27503 8.63658C7.39311 8.99083 7.44283 9.3575 7.39933 9.73662C7.36204 10.0536 7.26881 10.3395 7.06372 10.5881C7.02643 10.6316 6.99536 10.6813 6.95185 10.7248C6.7654 10.9299 6.58517 11.1288 6.39872 11.3339C6.19363 11.5576 6.00718 11.7938 5.87045 12.0672C5.73994 12.3345 5.62185 12.6141 5.53485 12.9C5.45405 13.1486 5.37326 13.391 5.29246 13.6396C5.2241 13.8385 5.12466 14.0063 4.92578 14.0871V14.0933C5.08115 14.143 5.23653 14.1865 5.3919 14.2362C5.96989 14.4227 6.46087 14.7459 6.87106 15.1933L6.87727 15.1871Z" fill="#D79D1E"/>
<path d="M12.6541 7.54261C12.0016 8.43756 11.7157 9.44438 11.7778 10.5506C11.7965 10.8862 11.8276 11.2219 11.8462 11.5575C11.8586 11.7315 11.8648 11.8993 11.8462 12.0733C11.8462 12.1479 11.8586 12.2038 11.9021 12.2597C12.3185 12.8253 12.6293 13.4468 12.8468 14.1118C12.9898 14.5406 13.0892 14.9819 13.1203 15.4356C13.1451 15.8333 13.0892 16.2249 13.0084 16.6102C13.0084 16.6288 13.0084 16.6537 13.0084 16.6724C13.0395 16.6413 13.0581 16.6102 13.0768 16.5791C13.3999 16.0136 13.7791 15.4977 14.239 15.0378C14.5559 14.7209 14.9226 14.4723 15.3452 14.3107C15.5752 14.2237 15.8051 14.1553 16.0537 14.0683C15.83 13.9937 15.7368 13.8135 15.6684 13.6146C15.6435 13.5525 15.6249 13.4903 15.6 13.4282C15.5068 13.1423 15.4198 12.8564 15.3204 12.5767C15.1401 12.0671 14.8667 11.6072 14.4751 11.2281C14.4192 11.1721 14.3633 11.1224 14.3135 11.0603C14.1582 10.88 13.9966 10.6936 13.8474 10.5071C13.7231 10.3455 13.6485 10.1653 13.5988 9.96644C13.5118 9.56247 13.5305 9.15849 13.6423 8.76695C13.7418 8.39405 13.8847 8.0398 14.0339 7.68555C14.1644 7.38102 14.27 7.07649 14.357 6.75953C14.4627 6.3742 14.4378 5.99509 14.2887 5.62219C14.239 5.49789 14.183 5.37981 14.1271 5.26172C14.1147 5.24308 14.1022 5.22443 14.0774 5.19336C14.0028 5.36738 13.9282 5.52897 13.8661 5.69056C13.7293 6.03859 13.5553 6.35556 13.3316 6.65387C13.1016 6.95219 12.8655 7.2443 12.6479 7.54883L12.6541 7.54261Z" fill="#D79D1E"/>
<path d="M10.5133 13.4904C10.5133 13.4904 10.5009 13.4718 10.4947 13.4656C10.4884 13.4718 10.476 13.4842 10.4698 13.4904C10.2771 13.9131 10.0658 14.3232 9.91667 14.7645C9.86074 14.9323 9.81723 15.1001 9.79859 15.2741C9.77373 15.5476 9.79859 15.821 9.86074 16.0883C9.94775 16.4985 10.041 16.9087 10.1404 17.3126C10.2336 17.6793 10.3331 18.046 10.4387 18.4127C10.4512 18.4562 10.4698 18.4935 10.4884 18.537C10.4947 18.537 10.5009 18.537 10.5133 18.537C10.5506 18.4313 10.5879 18.3257 10.619 18.2138C10.7308 17.7725 10.8427 17.3313 10.9546 16.89C11.0478 16.5233 11.1348 16.1629 11.1783 15.79C11.2218 15.4357 11.1969 15.0939 11.0727 14.7583C10.9173 14.3232 10.7122 13.9131 10.5195 13.4967L10.5133 13.4904Z" fill="#80E7DB"/>
<path d="M20.486 14.1306C20.4487 13.9753 20.4114 13.8199 20.3617 13.6645C20.3368 13.5899 20.2684 13.5589 20.2063 13.5899C20.1876 13.6024 20.1628 13.621 20.1628 13.6334C20.1628 13.6645 20.1752 13.7018 20.1814 13.7267C20.0074 14.0001 19.8334 14.2798 19.6594 14.5532C19.2243 15.2182 18.7396 15.8335 18.1554 16.368C17.6209 16.8652 16.9994 17.176 16.2722 17.2754C16.2412 17.2754 16.2039 17.2754 16.1728 17.2754C16.1977 17.2319 16.2287 17.207 16.2598 17.1822C16.7135 16.8093 17.1423 16.4177 17.5463 15.9951C18.1181 15.4047 18.5407 14.721 18.8576 13.969C19.0192 13.5775 19.1062 13.1735 19.0814 12.7509C19.069 12.5085 19.0379 12.2662 19.0068 12.0238C18.9571 11.6136 18.9384 11.2096 19.0317 10.8056C19.0441 10.7621 19.0441 10.7124 19.0441 10.6627C19.0441 10.5819 18.9819 10.5446 18.9074 10.5695C18.8639 10.5819 18.8204 10.6068 18.7769 10.6254C18.5718 10.7559 18.4599 10.9486 18.3853 11.1723C18.2859 11.4955 18.1864 11.8187 18.0683 12.1419C17.8881 12.6328 17.6457 13.0865 17.2915 13.4781C17.1423 13.6397 16.9807 13.7764 16.7819 13.8696C16.6141 13.9504 16.4338 13.9815 16.2536 13.9753C16.0609 13.9628 15.9118 13.882 15.8372 13.6956C15.7937 13.5837 15.7502 13.4718 15.7129 13.36C15.6072 13.0554 15.5202 12.7509 15.4084 12.4464C15.2406 11.9865 14.9982 11.5701 14.6439 11.222C14.5631 11.1412 14.4823 11.0605 14.4077 10.9734C14.2524 10.7932 14.097 10.6068 13.9416 10.4203C13.836 10.2898 13.7738 10.1344 13.7303 9.96663C13.6433 9.59373 13.6557 9.22083 13.749 8.84793C13.836 8.48747 13.9727 8.14565 14.1156 7.81004C14.2524 7.49308 14.3705 7.1699 14.4637 6.83429C14.5569 6.5049 14.5756 6.17551 14.4885 5.83991C14.414 5.55402 14.2834 5.29299 14.1467 5.03817C14.1405 5.02574 14.1343 5.01331 14.1219 5.00089C14.0721 4.93874 14.0162 4.95116 13.9913 5.01953C13.9851 5.03817 13.9789 5.06304 13.9727 5.08168C13.9354 5.17491 13.9043 5.27434 13.8608 5.36756C13.7987 5.49808 13.7614 5.5043 13.6371 5.44215C13.5252 5.38622 13.4258 5.31785 13.3139 5.26191C12.9348 5.07546 12.6178 4.81444 12.3133 4.52855C11.8969 4.1308 11.5986 3.66467 11.3811 3.1364C11.2506 2.81944 11.1822 2.48384 11.1014 2.14823C11.002 1.72561 10.8777 1.31542 10.6415 0.948741C10.6166 0.905236 10.5918 0.861734 10.5545 0.824444C10.5048 0.762295 10.4364 0.762295 10.3867 0.824444C10.3618 0.849304 10.3432 0.880375 10.3245 0.917664C10.1567 1.19734 10.0138 1.48944 9.93299 1.80641C9.8957 1.94935 9.86463 2.09851 9.82112 2.24145C9.74033 2.52734 9.67818 2.82565 9.57253 3.10533C9.36743 3.65846 9.04425 4.1308 8.62164 4.5472C8.2301 4.93874 7.76398 5.19976 7.29164 5.45457C7.17977 5.51051 7.14248 5.5043 7.09276 5.39243C7.04304 5.29299 7.01197 5.19355 6.97468 5.08789C6.95603 5.04439 6.96225 4.97602 6.89389 4.96981C6.83174 4.96359 6.80688 5.01953 6.78823 5.06304C6.70122 5.24949 6.60178 5.43593 6.5272 5.62859C6.38426 5.99527 6.36562 6.37439 6.46505 6.75971C6.54585 7.08289 6.66393 7.39985 6.78823 7.7106C6.90632 7.99649 7.01818 8.28238 7.11762 8.56826C7.25435 8.95359 7.3165 9.34513 7.26057 9.7491C7.22328 10.0288 7.14248 10.2836 6.96225 10.5011C6.92496 10.5508 6.88767 10.6005 6.84417 10.6441C6.66393 10.8429 6.48991 11.0418 6.30347 11.2345C6.02379 11.5266 5.80627 11.8622 5.63847 12.2289C5.49552 12.552 5.38987 12.8939 5.28422 13.2295C5.22828 13.3973 5.17235 13.5589 5.10398 13.7204C5.04805 13.8634 4.93618 13.9442 4.7808 13.969C4.63786 13.9939 4.49492 13.9815 4.35819 13.9442C4.07852 13.8696 3.85478 13.7018 3.66212 13.4905C3.30786 13.1052 3.05927 12.6515 2.87903 12.1605C2.76095 11.8435 2.66773 11.5141 2.56207 11.191C2.51235 11.0418 2.45642 10.9051 2.35076 10.787C2.26997 10.6938 2.17053 10.613 2.05245 10.5757C1.96544 10.5508 1.9095 10.5881 1.90329 10.6813C1.90329 10.7311 1.9095 10.7808 1.92193 10.8305C1.96544 11.0542 2.00273 11.2842 1.98408 11.5141C1.95922 11.8187 1.92815 12.117 1.89707 12.4153C1.84114 12.9001 1.866 13.3724 2.04002 13.8261C2.33212 14.5719 2.72988 15.2555 3.27058 15.8522C3.71184 16.3369 4.1966 16.772 4.70001 17.1884C4.73109 17.2132 4.75595 17.2381 4.79945 17.2754C4.74973 17.2754 4.72487 17.2754 4.70001 17.2754C4.47006 17.2195 4.23389 17.1822 4.01015 17.1076C3.54403 16.9584 3.15871 16.685 2.79824 16.3618C2.20782 15.8273 1.72305 15.1996 1.28801 14.5346C1.11399 14.2674 0.946187 13.9939 0.765954 13.7142C0.803243 13.6397 0.797028 13.6148 0.753524 13.5837C0.703804 13.5526 0.641655 13.5651 0.61058 13.6148C0.591935 13.6397 0.579506 13.6645 0.573291 13.6956C0.511142 13.9442 0.448992 14.1928 0.399272 14.4414C0.312263 14.9137 0.299833 15.3923 0.306048 15.8708C0.312263 16.3183 0.343337 16.7596 0.430346 17.2008C0.54843 17.7912 0.734879 18.363 0.952401 18.9286C1.39988 20.0783 2.04623 21.1224 2.80445 22.092C3.70562 23.2417 4.75595 24.2548 5.89328 25.1746C6.80688 25.9079 7.78884 26.5294 8.85781 26.9956C9.19963 27.1447 9.54766 27.2939 9.91435 27.3871C10.0884 27.4306 10.2686 27.4803 10.4488 27.3995C10.455 27.3995 10.4675 27.3995 10.4737 27.3995C10.5669 27.4555 10.6664 27.4492 10.7596 27.4306C10.915 27.3995 11.0765 27.3747 11.2257 27.3187C12.2263 26.9769 13.1585 26.5046 14.0286 25.9017C15.5451 24.8576 16.8813 23.6146 18.0373 22.179C18.7955 21.2343 19.4356 20.2088 19.9018 19.0839C20.3182 18.0647 20.6103 17.0144 20.6165 15.9019C20.6165 15.299 20.5978 14.7024 20.4549 14.1182L20.486 14.1306ZM13.8795 5.68453C13.9416 5.52294 14.0162 5.36757 14.0908 5.18734C14.1094 5.21841 14.1281 5.23705 14.1405 5.2557C14.1964 5.37378 14.2524 5.49187 14.3021 5.61617C14.4513 5.98906 14.4761 6.36817 14.3705 6.75349C14.2834 7.07046 14.1716 7.38121 14.0473 7.67952C13.8981 8.03377 13.7552 8.38803 13.6557 8.76093C13.5501 9.15868 13.5252 9.55643 13.6122 9.9604C13.6557 10.1593 13.7303 10.3457 13.8608 10.5011C14.01 10.6876 14.1716 10.874 14.327 11.0542C14.3767 11.1102 14.4326 11.1661 14.4885 11.222C14.8863 11.6011 15.1535 12.0611 15.3338 12.5707C15.4332 12.8504 15.5202 13.1362 15.6134 13.4221C15.6321 13.4843 15.657 13.5464 15.6818 13.6086C15.7502 13.8075 15.8434 13.9877 16.0671 14.0623C15.8185 14.1431 15.5886 14.2176 15.3586 14.3047C14.936 14.46 14.5693 14.7148 14.2524 15.0318C13.7925 15.4917 13.4134 16.0075 13.0902 16.5731C13.0715 16.6042 13.0529 16.6353 13.0218 16.6663C13.0218 16.6477 13.0218 16.6228 13.0218 16.6042C13.1088 16.2189 13.1648 15.8273 13.1337 15.4296C13.1026 14.9759 13.0032 14.5346 12.8602 14.1058C12.6427 13.4408 12.332 12.8193 11.9156 12.2537C11.8721 12.1978 11.8596 12.1418 11.8596 12.0673C11.8721 11.8995 11.8596 11.7254 11.8596 11.5514C11.841 11.2158 11.8099 10.8802 11.7913 10.5446C11.7353 9.43835 12.015 8.43153 12.6676 7.53658C12.8913 7.23205 13.1213 6.93995 13.3512 6.64163C13.5812 6.34953 13.7552 6.02635 13.8857 5.67831L13.8795 5.68453ZM12.8975 16.5172C12.6614 17.5924 12.245 18.5992 11.7353 19.5625C11.4246 20.1467 11.0765 20.706 10.7036 21.253C10.6477 21.3337 10.5918 21.427 10.4923 21.4767C10.4115 21.4456 10.3618 21.3835 10.3183 21.3151C10.1754 21.1038 10.0324 20.8987 9.8957 20.6874C9.20584 19.6184 8.65271 18.4873 8.2736 17.2754C8.13687 16.8466 8.03122 16.4115 7.98771 15.964C7.95042 15.6346 7.97529 15.299 8.03122 14.9696C8.19281 14.1058 8.51598 13.304 8.99453 12.5707C9.33014 12.0611 9.7279 11.6011 10.1257 11.135C10.2189 11.0294 10.3059 10.9237 10.3929 10.8181C10.4178 10.787 10.4426 10.7559 10.4737 10.7248C10.4923 10.7435 10.511 10.7559 10.5234 10.7746C10.8279 11.1288 11.1325 11.4831 11.4308 11.8435C11.9342 12.4588 12.3506 13.1238 12.6241 13.8696C12.767 14.2611 12.8851 14.6589 12.9472 15.0753C13.0156 15.5601 12.9907 16.0324 12.8851 16.511L12.8975 16.5172ZM7.53402 5.46701C7.61482 5.41729 7.70183 5.37378 7.78262 5.33028C8.87024 4.72121 9.57874 3.81383 9.88327 2.60192C9.96407 2.29117 10.0449 1.98042 10.1257 1.66968C10.194 1.41486 10.3245 1.19112 10.455 0.967385C10.4613 0.954955 10.4737 0.948745 10.4923 0.923885C10.5172 0.961175 10.5421 0.992252 10.5607 1.02333C10.7596 1.34029 10.8777 1.68832 10.9647 2.04879C11.0206 2.28496 11.0765 2.51491 11.1387 2.75108C11.3376 3.47201 11.7043 4.09972 12.2449 4.62177C12.5495 4.91388 12.8727 5.1749 13.2518 5.36135C13.3326 5.39864 13.4071 5.45457 13.4879 5.49186C13.5874 5.54158 13.6868 5.57887 13.7925 5.62859C13.7925 5.64724 13.78 5.67832 13.7676 5.70318C13.6557 5.97042 13.5314 6.23145 13.3574 6.4614C13.1585 6.72243 12.9597 6.98345 12.7546 7.24448C12.4438 7.64845 12.1704 8.07107 11.9901 8.54962C11.7726 9.13382 11.6545 9.73667 11.6794 10.3582C11.6918 10.6813 11.7229 10.9983 11.7415 11.3215C11.754 11.5514 11.7664 11.7814 11.7788 12.03C11.7478 12.0113 11.7353 12.0051 11.7229 11.9927C11.3562 11.5576 10.9895 11.1226 10.6228 10.6876C10.5918 10.6503 10.5607 10.6254 10.5731 10.5633C10.5793 10.5073 10.5483 10.4887 10.4923 10.4887C10.4302 10.4887 10.3929 10.5073 10.4053 10.5695C10.4115 10.6254 10.3867 10.6503 10.3556 10.6813C10.0511 11.0418 9.74033 11.4023 9.4358 11.769C9.36743 11.8497 9.29907 11.9368 9.2307 12.0238C9.21827 12.0238 9.21206 12.0238 9.19963 12.0175C9.19963 11.8622 9.20584 11.7068 9.21827 11.5514C9.24313 11.1537 9.28042 10.7559 9.29285 10.3582C9.31771 9.46942 9.11262 8.64284 8.65893 7.87841C8.50356 7.61738 8.31711 7.3812 8.13687 7.1326C7.96907 6.90265 7.78884 6.67892 7.62103 6.45518C7.42837 6.20037 7.29164 5.91448 7.17356 5.60995C7.3165 5.59752 7.42837 5.52294 7.54024 5.46079L7.53402 5.46701ZM4.93618 14.0747C5.14127 13.9877 5.24071 13.8199 5.30286 13.6272C5.38365 13.3786 5.46445 13.1362 5.54524 12.8876C5.63847 12.6018 5.75034 12.3283 5.88085 12.0548C6.01758 11.7814 6.20403 11.5452 6.40912 11.3215C6.59557 11.1226 6.78202 10.9175 6.96225 10.7124C6.99954 10.6689 7.03683 10.6192 7.07412 10.5757C7.27921 10.3271 7.37244 10.035 7.40973 9.72424C7.45323 9.34513 7.40973 8.97845 7.28543 8.6242C7.16734 8.27616 7.03061 7.93434 6.89389 7.59251C6.7758 7.28798 6.66393 6.98345 6.58935 6.66648C6.52099 6.36195 6.5272 6.06364 6.62664 5.77154C6.68879 5.59131 6.7758 5.41729 6.85038 5.23706C6.85038 5.22463 6.86281 5.21841 6.88767 5.18734C6.96225 5.36757 7.03683 5.52915 7.10519 5.69696C7.23571 6.02635 7.40351 6.3371 7.62103 6.62298C7.87585 6.95238 8.12444 7.27555 8.36683 7.60495C8.82052 8.23266 9.08154 8.94115 9.17477 9.70559C9.22449 10.1096 9.20584 10.5135 9.17477 10.9175C9.14991 11.2718 9.13748 11.626 9.11883 11.9803C9.11883 11.9927 9.11883 12.0113 9.11883 12.0238C9.15612 12.1356 9.09397 12.2164 9.03804 12.2972C8.48491 13.0679 8.11823 13.9193 7.93178 14.8453C7.8137 15.4296 7.83234 16.0138 7.96907 16.5917C7.96907 16.6104 7.97529 16.629 7.9815 16.6477C7.9815 16.6477 7.9815 16.6601 7.96907 16.6725C7.94421 16.6353 7.92557 16.6042 7.90692 16.5669C7.62103 16.0635 7.27921 15.5974 6.88767 15.1747C6.47748 14.7273 5.9865 14.4041 5.40851 14.2176C5.25314 14.1679 5.09777 14.1244 4.94239 14.0747V14.0685L4.93618 14.0747ZM20.0385 18.45C19.6594 19.5563 19.0938 20.5693 18.4164 21.514C17.8135 22.3592 17.1175 23.1299 16.3717 23.8508C15.5389 24.6525 14.6563 25.3921 13.6744 26.0136C12.9099 26.4984 12.102 26.9023 11.2381 27.2007C11.0268 27.2752 10.8155 27.3374 10.5856 27.3125C10.5607 27.3125 10.5358 27.3187 10.511 27.3312C10.4986 27.3312 10.4861 27.3498 10.4861 27.3498C10.3805 27.2752 10.2686 27.3374 10.1567 27.3125C9.97028 27.2814 9.79005 27.2255 9.60981 27.1571C8.45383 26.7345 7.39108 26.1441 6.40912 25.3983C5.05426 24.3666 3.82992 23.2044 2.79824 21.8496C2.09595 20.9298 1.50553 19.9478 1.08913 18.8664C0.877823 18.3257 0.703804 17.7788 0.58572 17.2132C0.517356 16.859 0.480067 16.5047 0.467637 16.1505C0.455207 15.7527 0.448991 15.355 0.486281 14.9572C0.517356 14.5843 0.591935 14.2114 0.697589 13.8447C0.747309 13.8572 0.759739 13.9007 0.784599 13.938C0.915113 14.1431 1.04563 14.3544 1.17614 14.5595C1.5739 15.1747 2.01516 15.7527 2.53721 16.2686C2.82931 16.5545 3.13385 16.8155 3.49431 17.0144C3.89207 17.2381 4.3209 17.3562 4.76838 17.4183C4.81188 17.4183 4.85538 17.4245 4.89889 17.4183C4.99833 17.4059 5.03562 17.3251 4.97347 17.2443C4.92996 17.1946 4.88024 17.1511 4.83052 17.1076C4.33954 16.7098 3.87342 16.2872 3.44459 15.8211C2.89146 15.2245 2.48749 14.547 2.19539 13.795C2.04002 13.4035 2.00273 12.9933 2.04623 12.5769C2.07731 12.2599 2.1146 11.943 2.13946 11.6322C2.16431 11.365 2.13945 11.0977 2.08352 10.8367C2.07731 10.7994 2.07109 10.7621 2.06488 10.7C2.17053 10.7497 2.24511 10.8056 2.30104 10.8802C2.38184 10.9797 2.43156 11.0977 2.47506 11.222C2.61179 11.626 2.73609 12.0362 2.89146 12.434C3.05305 12.8504 3.28922 13.2295 3.58754 13.5651C3.7802 13.7764 4.01015 13.938 4.2774 14.0498C4.40169 14.0996 4.53221 14.112 4.65651 14.1306C5.38987 14.2549 6.05487 14.5097 6.608 15.0256C6.9436 15.3425 7.23571 15.6968 7.49673 16.0821C7.7329 16.4239 7.94421 16.7782 8.09337 17.1635C8.18659 17.3935 8.26117 17.6296 8.34818 17.8596C8.75837 18.9969 9.32393 20.0535 9.99514 21.0541C10.0697 21.1722 10.1505 21.284 10.2313 21.3959C10.281 21.4581 10.337 21.514 10.3991 21.5699C10.4675 21.6321 10.5234 21.6321 10.598 21.5699C10.6601 21.514 10.7223 21.458 10.772 21.3897C11.6545 20.1343 12.363 18.7981 12.8292 17.3375C12.8913 17.1387 12.9907 16.946 13.0902 16.7596C13.4009 16.1816 13.78 15.6533 14.2337 15.1747C14.6377 14.7521 15.1163 14.4662 15.6694 14.286C15.9428 14.199 16.2225 14.1368 16.5146 14.1058C16.6389 14.0933 16.7446 14.0312 16.8502 13.9815C17.074 13.882 17.2542 13.7329 17.4096 13.5526C17.7887 13.13 18.0435 12.639 18.2299 12.1046C18.3356 11.8062 18.4288 11.5017 18.522 11.1972C18.5842 11.0045 18.6836 10.8367 18.8576 10.7311C18.8701 10.7248 18.8825 10.7186 18.8949 10.7124C18.8949 10.7124 18.9011 10.7124 18.9198 10.7124C18.9011 10.8367 18.8825 10.961 18.8639 11.0791C18.8328 11.3028 18.8328 11.5328 18.8639 11.7565C18.8949 12.0486 18.9322 12.3407 18.9571 12.639C19.0006 13.1114 18.9074 13.5589 18.7209 13.9939C18.4102 14.6962 18.0124 15.3425 17.4717 15.8957C17.0677 16.3183 16.6327 16.7098 16.1852 17.0827C16.1293 17.1262 16.0796 17.176 16.0298 17.2195C15.9988 17.2505 15.9739 17.294 15.9926 17.3375C16.0112 17.3873 16.0609 17.4059 16.1106 17.4059C16.2474 17.3935 16.3841 17.3748 16.5208 17.35C17.1796 17.2319 17.739 16.9149 18.2299 16.4674C18.8204 15.933 19.3051 15.3177 19.7402 14.6589C19.8831 14.4476 20.0136 14.2239 20.1504 14.0125C20.1876 13.9504 20.2311 13.8945 20.2809 13.8137C20.2995 13.8572 20.3057 13.8883 20.3182 13.9193C20.4922 14.5408 20.5419 15.1747 20.5295 15.8149C20.5232 16.194 20.5046 16.5731 20.4425 16.9522C20.3617 17.4618 20.2125 17.9528 20.0509 18.4438L20.0385 18.45Z" fill="#020911"/>
<path d="M10.5446 13.3538C10.5446 13.3538 10.5073 13.3165 10.4886 13.2979C10.47 13.3165 10.4451 13.3351 10.4327 13.36C10.2463 13.7702 10.066 14.1804 9.87958 14.5906C9.67449 15.0442 9.65585 15.5228 9.74907 16.0076C9.81122 16.3245 9.87958 16.6353 9.95416 16.946C10.0909 17.5116 10.209 18.0834 10.4141 18.6365C10.4265 18.68 10.4451 18.7173 10.4886 18.7173C10.5322 18.7173 10.557 18.6862 10.5694 18.6427C10.6129 18.5122 10.6627 18.3817 10.7 18.2449C10.8367 17.7167 10.9672 17.1946 11.0977 16.6663C11.1909 16.281 11.2779 15.8957 11.2842 15.5041C11.2966 15.3115 11.2593 15.0629 11.1909 14.8454C11.0231 14.3295 10.7808 13.851 10.5508 13.36L10.5446 13.3538ZM11.1661 15.79C11.1226 16.1629 11.0293 16.5296 10.9423 16.8901C10.8305 17.3313 10.7186 17.7726 10.6067 18.2139C10.5757 18.3195 10.5384 18.4252 10.5011 18.537C10.4949 18.537 10.4886 18.537 10.4762 18.537C10.4576 18.4935 10.4389 18.4562 10.4265 18.4127C10.3271 18.0461 10.2214 17.6856 10.1282 17.3127C10.0287 16.9087 9.93552 16.4985 9.84851 16.0884C9.79257 15.8211 9.76771 15.5477 9.78636 15.2742C9.79879 15.1002 9.84229 14.9324 9.90444 14.7646C10.0598 14.3295 10.2649 13.9131 10.4576 13.4905C10.4576 13.4843 10.47 13.4719 10.4824 13.4656C10.4886 13.4781 10.5011 13.4843 10.5011 13.4905C10.6937 13.9069 10.8988 14.3171 11.0542 14.7521C11.1785 15.0878 11.2034 15.4358 11.1599 15.7838L11.1661 15.79Z" fill="#020911"/>
</svg>
