<svg width="439" height="234" viewBox="0 0 439 234" fill="none" xmlns="http://www.w3.org/2000/svg">
<path fill-rule="evenodd" clip-rule="evenodd" d="M153.405 161.644C153.405 155.176 155.365 150.145 159.285 146.552C163.205 142.959 168.628 141.162 175.553 141.162C182.544 141.162 189.731 141.815 197.113 143.122L194.859 160.37C186.693 158.737 181.335 157.92 178.787 157.92C176.239 157.92 174.965 158.704 174.965 160.272C174.965 160.86 175.161 161.285 175.553 161.546C175.945 161.742 176.239 161.905 176.435 162.036C176.631 162.167 176.991 162.33 177.513 162.526C178.101 162.722 178.559 162.918 178.885 163.114C179.277 163.245 180.453 163.735 182.413 164.584C184.439 165.368 185.941 166.021 186.921 166.544C187.967 167.001 189.371 167.785 191.135 168.896C196.231 172.228 198.779 177.128 198.779 183.596C198.779 190.064 196.852 195.095 192.997 198.688C189.143 202.216 183.589 203.98 176.337 203.98C169.151 203.98 162.095 203.098 155.169 201.334L156.541 184.772C165.296 186.993 171.209 188.104 174.279 188.104C176.305 188.104 177.317 187.385 177.317 185.948C177.317 185.295 177.056 184.772 176.533 184.38C176.076 183.988 175.357 183.563 174.377 183.106C173.463 182.649 172.091 182.061 170.261 181.342C168.432 180.558 166.897 179.905 165.655 179.382C164.414 178.794 162.944 177.912 161.245 176.736C156.019 173.143 153.405 168.112 153.405 161.644ZM388.261 161.644C388.261 155.176 390.221 150.145 394.141 146.552C398.061 142.959 403.483 141.162 410.409 141.162C417.399 141.162 424.586 141.815 431.969 143.122L429.715 160.37C421.548 158.737 416.191 157.92 413.643 157.92C411.095 157.92 409.821 158.704 409.821 160.272C409.821 160.86 410.017 161.285 410.409 161.546C410.801 161.742 411.095 161.905 411.291 162.036C411.487 162.167 411.846 162.33 412.369 162.526C412.957 162.722 413.414 162.918 413.741 163.114C414.133 163.245 415.309 163.735 417.269 164.584C419.294 165.368 420.797 166.021 421.777 166.544C422.822 167.001 424.227 167.785 425.991 168.896C431.087 172.228 433.635 177.128 433.635 183.596C433.635 190.064 431.707 195.095 427.853 198.688C423.998 202.216 418.445 203.98 411.193 203.98C404.006 203.98 396.95 203.098 390.025 201.334L391.397 184.772C400.151 186.993 406.064 188.104 409.135 188.104C411.16 188.104 412.173 187.385 412.173 185.948C412.173 185.295 411.911 184.772 411.389 184.38C410.931 183.988 410.213 183.563 409.233 183.106C408.318 182.649 406.946 182.061 405.117 181.342C403.287 180.558 401.752 179.905 400.511 179.382C399.269 178.794 397.799 177.912 396.101 176.736C390.874 173.143 388.261 168.112 388.261 161.644ZM384.098 161.742C384.098 165.662 383.445 168.798 382.138 171.15C380.897 173.437 378.937 175.462 376.258 177.226L385.372 203H363.714L357.638 182.028H356.07V203H335.98V142.142H361.95C369.529 142.142 375.115 143.743 378.708 146.944C382.302 150.08 384.098 155.013 384.098 161.742ZM358.128 170.072C359.631 170.072 360.676 169.647 361.264 168.798C361.918 167.883 362.244 166.315 362.244 164.094C362.244 161.873 361.918 160.337 361.264 159.488C360.611 158.639 359.598 158.214 358.226 158.214H355.678V170.072H358.128ZM290.809 203H329.617L330.989 188.104H311.781V179.774H327.363V165.662H311.781V158.312H329.617L330.989 142.142H290.809V203ZM286.88 203H250.326V142.142H271.298V187.222H288.252L286.88 203ZM233.314 158.704H246.25L247.426 142.142H199.7L198.818 158.704H212.44V203H233.314V158.704ZM131.799 203H152.379L139.737 142.142H109.847L97.2051 203H116.903L118.961 193.592H129.839L131.799 203ZM124.645 160.566L128.369 180.95H120.431L124.253 160.566H124.645ZM97.1966 203H60.6426V142.142H81.6146V187.222H98.5686L97.1966 203ZM33.1559 203C47.9212 203 55.3039 197.055 55.3039 185.164C55.3039 178.173 52.6579 173.469 47.3659 171.052V170.66C51.9392 167.72 54.2259 163.539 54.2259 158.116C54.2259 152.693 52.4619 148.675 48.9339 146.062C45.4712 143.449 40.0812 142.142 32.7639 142.142H5.42188V203H33.1559ZM32.6659 189.77C32.0779 190.489 30.9019 190.848 29.1379 190.848H26.2959V178.304H29.1379C30.8365 178.304 31.9799 178.827 32.5679 179.872C33.2212 180.852 33.5479 182.551 33.5479 184.968C33.5479 187.385 33.2539 188.986 32.6659 189.77ZM31.7839 166.348C31.2612 167.132 30.4119 167.524 29.2359 167.524H26.2959V156.842H29.1379C30.3792 156.842 31.2612 157.267 31.7839 158.116C32.3719 158.965 32.6659 160.37 32.6659 162.33C32.6659 164.225 32.3719 165.564 31.7839 166.348Z" fill="url(#paint0_linear_2377_11959)"/>
<path fill-rule="evenodd" clip-rule="evenodd" d="M198.819 163.704C198.742 163.704 198.666 163.702 198.59 163.699C198.347 163.971 198.073 164.218 197.771 164.434C196.908 165.053 195.877 165.376 194.83 165.37C200.801 169.685 203.779 175.964 203.779 183.596C203.779 191.112 201.5 197.598 196.407 202.345L196.373 202.376C191.291 207.028 184.352 208.98 176.337 208.98C169.384 208.98 162.54 208.199 155.811 206.636C154.889 207.506 153.663 208 152.379 208H131.799C129.431 208 127.387 206.338 126.904 204.02L125.773 198.592H122.986L121.788 204.068C121.285 206.364 119.253 208 116.903 208H97.2051H97.2009H97.1966H60.6426C57.8812 208 55.6426 205.761 55.6426 203V199.733C54.8415 200.705 53.9301 201.608 52.9029 202.435C47.9469 206.426 41.0786 208 33.1559 208H5.42188C2.66045 208 0.421875 205.761 0.421875 203V142.142C0.421875 139.381 2.66045 137.142 5.42188 137.142H32.7639C40.482 137.142 47.1808 138.484 51.9277 142.057C53.4024 143.152 54.6352 144.408 55.6426 145.8V142.142C55.6426 139.381 57.8812 137.142 60.6426 137.142H81.6146C84.376 137.142 86.6146 139.381 86.6146 142.142V182.222H96.4146L104.952 141.125C105.434 138.805 107.478 137.142 109.847 137.142H139.737C142.107 137.142 144.151 138.805 144.633 141.125L148.466 159.577C148.861 152.915 151.213 147.168 155.907 142.866C161 138.197 167.766 136.162 175.553 136.162C182.507 136.162 189.619 136.781 196.887 138.009C197.69 137.461 198.66 137.142 199.701 137.142H247.427C247.922 137.142 248.409 137.215 248.874 137.356C249.334 137.217 249.821 137.142 250.326 137.142H271.298C274.06 137.142 276.298 139.381 276.298 142.142V182.222H285.809V142.142C285.809 139.381 288.047 137.142 290.809 137.142H330.989C331.873 137.142 332.732 137.376 333.484 137.809C334.218 137.385 335.071 137.142 335.98 137.142H361.95C370.073 137.142 377.106 138.832 382.015 143.194C383.795 144.751 385.199 146.573 386.271 148.611C387.418 146.492 388.908 144.567 390.763 142.866C395.856 138.197 402.622 136.162 410.409 136.162C417.712 136.162 425.191 136.845 432.841 138.199C435.473 138.664 437.273 141.119 436.927 143.77L434.673 161.018C434.494 162.391 433.753 163.628 432.627 164.434C431.764 165.053 430.732 165.376 429.686 165.37C435.657 169.685 438.635 175.964 438.635 183.596C438.635 191.112 436.356 197.598 431.263 202.345L431.229 202.376C426.147 207.028 419.208 208.98 411.193 208.98C403.718 208.98 396.369 208.077 389.154 206.271C388.21 207.363 386.832 208 385.372 208H363.714C362.206 208 360.821 207.325 359.892 206.224C358.975 207.31 357.603 208 356.07 208H335.98C334.772 208 333.663 207.571 332.798 206.857C331.931 207.573 330.82 208 329.617 208H290.809C290.111 208 289.447 207.857 288.844 207.599C288.24 207.857 287.575 208 286.88 208H250.326C247.565 208 245.326 205.761 245.326 203V163.704H238.315V203C238.315 205.761 236.076 208 233.315 208H212.441C209.679 208 207.441 205.761 207.441 203V163.704H198.819ZM55.6426 169.697C55.4601 169.948 55.2708 170.195 55.0748 170.437C55.2689 170.639 55.4582 170.845 55.6426 171.056V169.697ZM116.903 203H102.215H97.2051L109.847 142.142H139.737L150.688 194.861L150.688 194.863L152.379 203L131.799 203L129.839 193.592H118.961L116.903 203ZM81.6146 187.222H95.3759H98.5686L97.1966 203H92.2051H60.6426V142.142H81.6146V187.222ZM151.312 173.278L152.972 181.27C153.175 181.064 153.397 180.873 153.637 180.702C154.611 180.007 155.793 179.69 156.968 179.79C154.593 177.909 152.705 175.728 151.312 173.278ZM157.244 201.835L157.244 201.835C156.551 201.677 155.86 201.51 155.17 201.334L155.731 194.554L155.731 194.552L156.541 184.772C158.294 185.217 159.934 185.617 161.459 185.973C166.659 187.186 170.534 187.881 173.084 188.058L173.181 188.065C173.243 188.069 173.305 188.073 173.365 188.076C173.497 188.084 173.624 188.089 173.748 188.094C173.934 188.101 174.111 188.104 174.279 188.104C176.305 188.104 177.317 187.385 177.317 185.948C177.317 185.295 177.056 184.772 176.533 184.38C176.08 183.991 175.37 183.571 174.402 183.118L174.377 183.106L174.371 183.103C173.456 182.646 172.086 182.059 170.261 181.342C168.432 180.558 166.897 179.905 165.655 179.382C164.414 178.794 162.944 177.912 161.245 176.736C156.019 173.143 153.405 168.112 153.405 161.644C153.405 155.176 155.365 150.145 159.285 146.552C163.205 142.959 168.628 141.162 175.553 141.162C182.544 141.162 189.731 141.815 197.113 143.122L194.859 160.37C194.587 160.315 194.317 160.262 194.051 160.209L194.051 160.209C192.586 159.919 191.216 159.657 189.941 159.422C185.128 158.536 181.663 158.042 179.547 157.94C179.44 157.935 179.337 157.931 179.238 157.928L179.175 157.926C179.132 157.924 179.09 157.923 179.048 157.923L178.962 157.921C178.902 157.92 178.844 157.92 178.787 157.92C178.491 157.92 178.211 157.931 177.949 157.952C177.724 157.97 177.511 157.996 177.311 158.03C175.747 158.296 174.965 159.044 174.965 160.272C174.965 160.86 175.161 161.285 175.553 161.546C175.945 161.742 176.239 161.905 176.435 162.036C176.631 162.167 176.991 162.33 177.513 162.526C177.844 162.636 178.133 162.746 178.381 162.857C178.406 162.868 178.43 162.879 178.455 162.89C178.47 162.897 178.485 162.904 178.5 162.911C178.51 162.916 178.52 162.92 178.53 162.925C178.662 162.988 178.78 163.051 178.885 163.114C179.277 163.245 180.453 163.735 182.413 164.584C184.439 165.368 185.941 166.021 186.921 166.544C187.967 167.001 189.371 167.785 191.135 168.896C196.231 172.228 198.779 177.128 198.779 183.596C198.779 190.064 196.852 195.095 192.997 198.688C189.143 202.216 183.589 203.98 176.337 203.98C169.867 203.98 163.502 203.265 157.244 201.835ZM245.326 158.704H246.251L247.427 142.142H245.326L202.017 142.142L199.701 142.142L198.819 158.704H212.441V203H233.315V158.704H245.326ZM250.326 161.602V203H285.809H286.88L288.252 187.222H285.809H271.298V142.142H252.427H250.326V161.601L250.326 161.602ZM329.617 203H291.899H290.809V182.925V142.142H330.98H330.989L330.98 142.238L329.617 158.312H311.781V165.662H327.363V179.774H311.781V188.104H330.98H330.989L330.98 188.192L329.617 203ZM335.98 188.389V203H356.07V182.028H357.638L363.714 203L385.372 203L385.111 202.261L376.258 177.226C378.937 175.462 380.897 173.437 382.138 171.15C382.862 169.848 383.385 168.307 383.707 166.525C383.968 165.087 384.098 163.493 384.098 161.742L384.098 161.644C384.093 159.771 383.949 158.038 383.664 156.445C382.934 152.357 381.282 149.19 378.708 146.944C375.115 143.743 369.529 142.142 361.95 142.142H335.989H335.98V142.427V187.819V188.389ZM411.193 203.98C404.03 203.98 396.996 203.104 390.093 201.351L390.059 201.343L390.025 201.334L390.037 201.193L391.397 184.772C393.15 185.217 394.79 185.617 396.315 185.973C401.514 187.186 405.389 187.881 407.94 188.058L408.037 188.065C408.099 188.069 408.161 188.073 408.221 188.076C408.352 188.084 408.48 188.089 408.604 188.094C408.789 188.101 408.967 188.104 409.135 188.104C411.16 188.104 412.173 187.385 412.173 185.948C412.173 185.295 411.912 184.772 411.389 184.38C410.936 183.991 410.225 183.571 409.258 183.118L409.233 183.106L409.227 183.103C408.312 182.646 406.942 182.059 405.117 181.342C403.288 180.558 401.752 179.905 400.511 179.382C399.27 178.794 397.8 177.912 396.101 176.736C392.234 174.077 389.797 170.631 388.791 166.398C388.778 166.341 388.764 166.283 388.751 166.225C388.431 164.817 388.268 163.323 388.261 161.742L388.261 161.644C388.261 161.442 388.263 161.241 388.267 161.042C388.298 159.432 388.454 157.914 388.734 156.488C389.53 152.438 391.333 149.126 394.141 146.552C398.061 142.959 403.484 141.162 410.409 141.162C417.4 141.162 424.586 141.816 431.969 143.122L429.715 160.37C427.943 160.016 426.304 159.7 424.796 159.422C419.984 158.536 416.519 158.042 414.402 157.94C414.296 157.935 414.193 157.931 414.094 157.928L414.031 157.926C413.988 157.924 413.945 157.923 413.904 157.923L413.818 157.921C413.758 157.92 413.7 157.92 413.643 157.92C413.347 157.92 413.067 157.931 412.805 157.952C412.58 157.97 412.367 157.996 412.167 158.03C410.603 158.296 409.821 159.044 409.821 160.272C409.821 160.86 410.017 161.285 410.409 161.546C410.801 161.742 411.095 161.905 411.291 162.036C411.487 162.167 411.846 162.33 412.369 162.526C412.7 162.636 412.989 162.746 413.237 162.857C413.288 162.879 413.338 162.902 413.386 162.925C413.518 162.988 413.636 163.051 413.741 163.114C414.133 163.245 415.309 163.735 417.269 164.584C419.294 165.368 420.797 166.021 421.777 166.544C422.822 167.001 424.227 167.785 425.991 168.896C431.087 172.228 433.635 177.128 433.635 183.596C433.635 190.064 431.708 195.095 427.853 198.688C423.998 202.216 418.445 203.98 411.193 203.98ZM386.414 184.359L385.972 189.698L382.179 178.97C383.894 177.428 385.334 175.687 386.429 173.725C387.793 175.993 389.594 178.024 391.824 179.79C390.649 179.69 389.466 180.007 388.493 180.702C387.296 181.556 386.536 182.894 386.414 184.359ZM355.678 158.214H358.226C359.24 158.214 360.057 158.446 360.678 158.909C360.898 159.073 361.094 159.266 361.264 159.488C361.918 160.337 362.244 161.873 362.244 164.094C362.244 166.315 361.918 167.883 361.264 168.798C361.103 169.031 360.908 169.231 360.678 169.4C360.07 169.848 359.22 170.072 358.128 170.072H355.678V158.214ZM124.645 160.566H124.253L120.431 180.95H128.369L124.645 160.566ZM47.7277 171.223C49.1829 171.933 50.4285 172.824 51.4645 173.897C54.0241 176.546 55.3039 180.302 55.3039 185.164C55.3039 197.055 47.9212 203 33.1559 203H5.42188V142.142H32.7639C40.0812 142.142 45.4712 143.449 48.9339 146.062C52.4619 148.675 54.2259 152.693 54.2259 158.116C54.2259 161.761 53.1925 164.846 51.1256 167.369C50.1757 168.529 49.0076 169.57 47.6212 170.493C47.5369 170.549 47.4518 170.605 47.3659 170.66V171.052C47.4879 171.108 47.6085 171.165 47.7277 171.223ZM29.1379 178.304H26.2959V190.848H29.1379C29.9965 190.848 30.7159 190.763 31.2959 190.593C31.9074 190.413 32.3641 190.139 32.6659 189.77C33.2539 188.986 33.5479 187.385 33.5479 184.968C33.5479 182.551 33.2212 180.852 32.5679 179.872C32.2784 179.357 31.8544 178.969 31.2959 178.708C30.7197 178.439 30.0004 178.304 29.1379 178.304ZM29.1379 156.842H26.2959V167.524H29.2359C30.0982 167.524 30.7848 167.313 31.2959 166.892C31.4818 166.738 31.6445 166.557 31.7839 166.348C32.3719 165.564 32.6659 164.225 32.6659 162.33C32.6659 160.37 32.3719 158.965 31.7839 158.116C31.6462 157.892 31.4835 157.698 31.2959 157.533C30.7715 157.072 30.0521 156.842 29.1379 156.842Z" fill="#383838"/>
<path d="M206.563 13.0856C209.644 7.71805 211.185 5.03427 213.501 5.03427C215.817 5.03427 217.358 7.71805 220.439 13.0856L242.215 51.0171C243.331 52.9613 243.889 53.9335 243.889 55C243.889 56.0665 243.331 57.0387 242.215 58.9829L220.439 96.9144C217.358 102.282 215.817 104.966 213.501 104.966C211.185 104.966 209.644 102.282 206.563 96.9144L184.788 58.9829C183.671 57.0387 183.113 56.0665 183.113 55C183.113 53.9335 183.671 52.9613 184.788 51.0171L206.563 13.0856Z" fill="url(#paint1_linear_2377_11959)"/>
<path fill-rule="evenodd" clip-rule="evenodd" d="M224.775 10.5963L246.63 48.6659C247.119 49.5162 247.647 50.4357 248.029 51.2839C248.477 52.2782 248.889 53.5121 248.889 55C248.889 56.4879 248.477 57.7218 248.029 58.7161C247.647 59.5643 247.119 60.4838 246.63 61.3341C246.604 61.3804 246.577 61.4264 246.551 61.4723L224.775 99.4037C224.719 99.502 224.663 99.6001 224.606 99.6979C223.213 102.126 221.9 104.415 220.607 106.052C219.235 107.788 216.984 109.966 213.501 109.966C210.018 109.966 207.767 107.788 206.395 106.052C205.102 104.415 203.789 102.126 202.396 99.698C202.339 99.6001 202.283 99.502 202.227 99.4038L180.451 61.4723C180.425 61.4264 180.398 61.3803 180.372 61.334C179.883 60.4837 179.355 59.5643 178.973 58.7161C178.525 57.7218 178.113 56.4879 178.113 55C178.113 53.5121 178.525 52.2782 178.973 51.2839C179.355 50.4358 179.883 49.5163 180.372 48.6661C180.398 48.6197 180.425 48.5736 180.451 48.5277L202.227 10.5963C202.283 10.498 202.339 10.4 202.396 10.3022C203.789 7.87362 205.102 5.58494 206.395 3.94807C207.767 2.21183 210.018 0.0342712 213.501 0.0342712C216.984 0.0342712 219.235 2.21182 220.607 3.94806C221.9 5.58493 223.213 7.8736 224.607 10.3022C224.663 10.4 224.719 10.498 224.775 10.5963ZM213.501 5.03427C211.185 5.03427 209.644 7.71805 206.563 13.0856L184.788 51.0171C183.671 52.9613 183.113 53.9335 183.113 55C183.113 56.0665 183.671 57.0387 184.788 58.9829L206.563 96.9144C209.644 102.282 211.185 104.966 213.501 104.966C215.817 104.966 217.358 102.282 220.439 96.9144L242.215 58.9829C243.331 57.0387 243.889 56.0665 243.889 55C243.889 53.9335 243.331 52.9613 242.215 51.0171L220.439 13.0856C217.358 7.71805 215.817 5.03427 213.501 5.03427Z" fill="#383838"/>
<path d="M225.08 22.9432C228.158 17.6326 229.697 14.9773 232.002 14.9773C234.307 14.9773 235.846 17.6326 238.923 22.9432L255.177 50.9886C256.311 52.946 256.879 53.9247 256.879 55C256.879 56.0753 256.311 57.054 255.177 59.0114L238.923 87.0568C235.846 92.3674 234.307 95.0227 232.002 95.0227C229.697 95.0227 228.158 92.3674 225.08 87.0568L208.827 59.0114C207.692 57.054 207.125 56.0753 207.125 55C207.125 53.9247 207.692 52.946 208.827 50.9886L225.08 22.9432Z" fill="url(#paint2_linear_2377_11959)"/>
<path fill-rule="evenodd" clip-rule="evenodd" d="M243.249 20.4361L259.503 48.4815C259.53 48.5277 259.557 48.5741 259.584 48.6207C260.08 49.4767 260.617 50.4019 261.005 51.2556C261.46 52.2563 261.879 53.4995 261.879 55C261.879 56.5005 261.46 57.7437 261.005 58.7444C260.617 59.5982 260.08 60.5234 259.584 61.3795C259.557 61.426 259.53 61.4724 259.503 61.5185L243.249 89.564C243.193 89.6616 243.136 89.759 243.08 89.8563C241.689 92.2578 240.376 94.5248 239.084 96.1465C237.71 97.8708 235.464 100.023 232.002 100.023C228.54 100.023 226.293 97.8707 224.92 96.1465C223.628 94.5248 222.315 92.2578 220.924 89.8563C220.867 89.7591 220.811 89.6616 220.754 89.5639L204.501 61.5185C204.474 61.4724 204.447 61.426 204.42 61.3794C203.923 60.5233 203.387 59.5981 202.999 58.7444C202.544 57.7437 202.125 56.5005 202.125 55C202.125 53.4995 202.544 52.2563 202.999 51.2556C203.387 50.4019 203.923 49.4767 204.42 48.6206C204.447 48.574 204.474 48.5276 204.501 48.4815L220.754 20.4361C220.811 20.3384 220.867 20.241 220.924 20.1437C222.315 17.7422 223.628 15.4753 224.92 13.8535C226.293 12.1293 228.54 9.97729 232.002 9.97729C235.464 9.97729 237.71 12.1293 239.084 13.8535C240.376 15.4753 241.689 17.7422 243.08 20.1437C243.136 20.2409 243.193 20.3384 243.249 20.4361ZM232.002 14.9773C229.697 14.9773 228.158 17.6326 225.08 22.9432L208.827 50.9886C207.692 52.946 207.125 53.9247 207.125 55C207.125 56.0753 207.692 57.054 208.827 59.0114L225.08 87.0568C228.158 92.3674 229.697 95.0227 232.002 95.0227C234.307 95.0227 235.846 92.3674 238.923 87.0568L255.177 59.0114C256.311 57.054 256.879 56.0753 256.879 55C256.879 53.9247 256.311 52.946 255.177 50.9886L238.923 22.9432C235.846 17.6326 234.307 14.9773 232.002 14.9773Z" fill="#383838"/>
<defs>
<linearGradient id="paint0_linear_2377_11959" x1="218.502" y1="121" x2="218.502" y2="234" gradientUnits="userSpaceOnUse">
<stop offset="0.03" stop-color="#FFF8E1"/>
<stop offset="0.44246" stop-color="#FDBB01"/>
<stop offset="1" stop-color="#E2621A"/>
</linearGradient>
<linearGradient id="paint1_linear_2377_11959" x1="213.355" y1="-27.0396" x2="213.355" y2="152.722" gradientUnits="userSpaceOnUse">
<stop offset="0.03" stop-color="#FFF8E1"/>
<stop offset="0.44246" stop-color="#FDBB01"/>
<stop offset="1" stop-color="#E2621A"/>
</linearGradient>
<linearGradient id="paint2_linear_2377_11959" x1="231.883" y1="-10.714" x2="231.883" y2="133.276" gradientUnits="userSpaceOnUse">
<stop offset="0.03" stop-color="#FFF8E1"/>
<stop offset="0.44246" stop-color="#FDBB01"/>
<stop offset="1" stop-color="#E2621A"/>
</linearGradient>
</defs>
</svg>
