<svg width="137" height="20" viewBox="0 0 137 20" fill="none" xmlns="http://www.w3.org/2000/svg">
<path fill-rule="evenodd" clip-rule="evenodd" d="M47.1152 6.52106C47.1152 4.46178 47.7393 2.86011 48.9873 1.71607C50.2354 0.572023 51.9618 0 54.1667 0C56.3924 0 58.6805 0.208009 61.031 0.624026L60.3134 6.11544C57.7133 5.59542 56.0076 5.33541 55.1964 5.33541C54.3851 5.33541 53.9795 5.58502 53.9795 6.08424C53.9795 6.27145 54.0419 6.40666 54.1667 6.48986C54.2915 6.55226 54.3851 6.60426 54.4475 6.64587C54.5099 6.68747 54.6243 6.73947 54.7907 6.80187C54.9779 6.86427 55.1236 6.92668 55.2276 6.98908C55.3524 7.03068 55.7268 7.18669 56.3508 7.4571C56.9956 7.70671 57.474 7.91472 57.7861 8.08112C58.1189 8.22673 58.5661 8.47634 59.1277 8.82995C60.7502 9.8908 61.5614 11.4509 61.5614 13.5101C61.5614 15.5694 60.9478 17.1711 59.7205 18.3151C58.4933 19.4384 56.7252 20 54.4163 20C52.1282 20 49.8817 19.7192 47.6769 19.1576L48.1137 13.8846C50.901 14.5918 52.7835 14.9454 53.7611 14.9454C54.4059 14.9454 54.7283 14.7166 54.7283 14.259C54.7283 14.051 54.6451 13.8846 54.4787 13.7597C54.3331 13.6349 54.1043 13.4997 53.7923 13.3541C53.5011 13.2085 53.0643 13.0213 52.4818 12.7925C51.8994 12.5429 51.4106 12.3349 51.0154 12.1685C50.6202 11.9813 50.1522 11.7005 49.6113 11.3261C47.9473 10.182 47.1152 8.58034 47.1152 6.52106ZM121.888 6.52106C121.888 4.46178 122.512 2.86011 123.76 1.71607C125.008 0.572023 126.735 0 128.94 0C131.165 0 133.453 0.208009 135.804 0.624026L135.086 6.11544C132.486 5.59542 130.781 5.33541 129.969 5.33541C129.158 5.33541 128.752 5.58502 128.752 6.08424C128.752 6.27145 128.815 6.40666 128.94 6.48986C129.064 6.55226 129.158 6.60426 129.22 6.64587C129.283 6.68747 129.397 6.73947 129.564 6.80187C129.751 6.86427 129.896 6.92668 130.001 6.98908C130.125 7.03068 130.5 7.18669 131.124 7.4571C131.769 7.70671 132.247 7.91472 132.559 8.08112C132.892 8.22673 133.339 8.47634 133.901 8.82995C135.523 9.8908 136.334 11.4509 136.334 13.5101C136.334 15.5694 135.721 17.1711 134.493 18.3151C133.266 19.4384 131.498 20 129.189 20C126.901 20 124.655 19.7192 122.45 19.1576L122.887 13.8846C125.674 14.5918 127.556 14.9454 128.534 14.9454C129.179 14.9454 129.501 14.7166 129.501 14.259C129.501 14.051 129.418 13.8846 129.252 13.7597C129.106 13.6349 128.877 13.4997 128.565 13.3541C128.274 13.2085 127.837 13.0213 127.255 12.7925C126.672 12.5429 126.184 12.3349 125.788 12.1685C125.393 11.9813 124.925 11.7005 124.384 11.3261C122.72 10.182 121.888 8.58034 121.888 6.52106ZM120.563 6.55226C120.563 7.80031 120.355 8.79875 119.939 9.54758C119.544 10.2756 118.92 10.9204 118.067 11.4821L120.969 19.688H114.073L112.139 13.0109H111.639V19.688H105.243V0.312012H113.511C115.924 0.312012 117.703 0.821632 118.847 1.84087C119.991 2.83931 120.563 4.40978 120.563 6.55226ZM112.295 9.20437C112.773 9.20437 113.106 9.06916 113.293 8.79875C113.501 8.50754 113.605 8.00832 113.605 7.30109C113.605 6.59386 113.501 6.10504 113.293 5.83463C113.085 5.56422 112.763 5.42902 112.326 5.42902H111.515V9.20437H112.295ZM90.8613 19.688H103.217L103.654 14.9454H97.5384V12.2933H102.499V7.80031H97.5384V5.46022H103.217L103.654 0.312012H90.8613V19.688ZM89.6107 19.688H77.9727V0.312012H84.6497V14.6646H90.0475L89.6107 19.688ZM72.5566 5.58502H76.6751L77.0495 0.312012H61.8545L61.5737 5.58502H65.9107V19.688H72.5566V5.58502ZM40.2362 19.688H46.7885L42.7635 0.312012H33.2471L29.2222 19.688H35.4936L36.1488 16.6927H39.6122L40.2362 19.688ZM37.9585 6.17785L39.1442 12.6677H36.6169L37.8337 6.17785H37.9585ZM29.2191 19.688H17.5811V0.312012H24.2581V14.6646H29.6559L29.2191 19.688ZM8.82995 19.688C13.5309 19.688 15.8814 17.7951 15.8814 14.0094C15.8814 11.7837 15.039 10.286 13.3541 9.51638V9.39158C14.8102 8.45554 15.5382 7.12428 15.5382 5.39782C15.5382 3.67135 14.9766 2.3921 13.8534 1.56006C12.7509 0.728029 11.0348 0.312012 8.70515 0.312012H0V19.688H8.82995ZM8.67395 15.4758C8.48674 15.7046 8.11232 15.819 7.5507 15.819H6.64587V11.8253H7.5507C8.09152 11.8253 8.45554 11.9917 8.64274 12.3245C8.85075 12.6365 8.95476 13.1773 8.95476 13.947C8.95476 14.7166 8.86115 15.2262 8.67395 15.4758ZM8.39314 8.01872C8.22673 8.26833 7.95632 8.39314 7.5819 8.39314H6.64587V4.9922H7.5507C7.94592 4.9922 8.22673 5.12741 8.39314 5.39782C8.58034 5.66823 8.67395 6.11544 8.67395 6.73947C8.67395 7.34269 8.58034 7.76911 8.39314 8.01872Z" fill="#F2F2F2"/>
</svg>
