<svg width="434" height="208" viewBox="0 0 434 208" fill="none" xmlns="http://www.w3.org/2000/svg">
<g filter="url(#filter0_d_1150_3388)">
<path fill-rule="evenodd" clip-rule="evenodd" d="M151.903 160.448C151.903 153.98 153.863 148.949 157.783 145.356C161.703 141.762 167.126 139.966 174.051 139.966C181.042 139.966 188.229 140.619 195.611 141.926L193.357 159.174C185.191 157.54 179.833 156.724 177.285 156.724C174.737 156.724 173.463 157.508 173.463 159.076C173.463 159.664 173.659 160.088 174.051 160.35C174.443 160.546 174.737 160.709 174.933 160.84C175.129 160.97 175.489 161.134 176.011 161.33C176.599 161.526 177.057 161.722 177.383 161.918C177.775 162.048 178.951 162.538 180.911 163.388C182.937 164.172 184.439 164.825 185.419 165.348C186.465 165.805 187.869 166.589 189.633 167.7C194.729 171.032 197.277 175.932 197.277 182.4C197.277 188.868 195.35 193.898 191.495 197.492C187.641 201.02 182.087 202.784 174.835 202.784C167.649 202.784 160.593 201.902 153.667 200.138L155.039 183.576C163.794 185.797 169.707 186.908 172.777 186.908C174.803 186.908 175.815 186.189 175.815 184.752C175.815 184.098 175.554 183.576 175.031 183.184C174.574 182.792 173.855 182.367 172.875 181.91C171.961 181.452 170.589 180.864 168.759 180.146C166.93 179.362 165.395 178.708 164.153 178.186C162.912 177.598 161.442 176.716 159.743 175.54C154.517 171.946 151.903 166.916 151.903 160.448ZM386.759 160.448C386.759 153.98 388.719 148.949 392.639 145.356C396.559 141.762 401.981 139.966 408.907 139.966C415.897 139.966 423.084 140.619 430.467 141.926L428.213 159.174C420.046 157.54 414.689 156.724 412.141 156.724C409.593 156.724 408.319 157.508 408.319 159.076C408.319 159.664 408.515 160.088 408.907 160.35C409.299 160.546 409.593 160.709 409.789 160.84C409.985 160.97 410.344 161.134 410.867 161.33C411.455 161.526 411.912 161.722 412.239 161.918C412.631 162.048 413.807 162.538 415.767 163.388C417.792 164.172 419.295 164.825 420.275 165.348C421.32 165.805 422.725 166.589 424.489 167.7C429.585 171.032 432.133 175.932 432.133 182.4C432.133 188.868 430.205 193.898 426.351 197.492C422.496 201.02 416.943 202.784 409.691 202.784C402.504 202.784 395.448 201.902 388.523 200.138L389.895 183.576C398.649 185.797 404.562 186.908 407.633 186.908C409.658 186.908 410.671 186.189 410.671 184.752C410.671 184.098 410.409 183.576 409.887 183.184C409.429 182.792 408.711 182.367 407.731 181.91C406.816 181.452 405.444 180.864 403.615 180.146C401.785 179.362 400.25 178.708 399.009 178.186C397.767 177.598 396.297 176.716 394.599 175.54C389.372 171.946 386.759 166.916 386.759 160.448ZM382.596 160.546C382.596 164.466 381.943 167.602 380.637 169.954C379.395 172.24 377.435 174.266 374.757 176.03L383.871 201.804H362.212L356.137 180.832H354.569V201.804H334.479V140.946H360.449C368.027 140.946 373.613 142.546 377.207 145.748C380.8 148.884 382.596 153.816 382.596 160.546ZM356.626 168.876C358.129 168.876 359.174 168.451 359.763 167.602C360.416 166.687 360.742 165.119 360.742 162.898C360.742 160.676 360.416 159.141 359.763 158.292C359.109 157.442 358.097 157.018 356.725 157.018H354.177V168.876H356.626ZM289.307 201.804H328.115L329.487 186.908H310.279V178.578H325.861V164.466H310.279V157.116H328.115L329.487 140.946H289.307V201.804ZM285.378 201.804H248.824V140.946H269.796V186.026H286.75L285.378 201.804ZM231.812 157.508H244.748L245.924 140.946H198.198L197.316 157.508H210.938V201.804H231.812V157.508ZM130.297 201.804H150.877L138.235 140.946H108.345L95.7031 201.804H115.401L117.459 192.396H128.337L130.297 201.804ZM123.143 159.37L126.867 179.754H118.929L122.751 159.37H123.143ZM95.6946 201.804H59.1406V140.946H80.1126V186.026H97.0666L95.6946 201.804ZM31.6539 201.804C46.4193 201.804 53.8019 195.858 53.8019 183.968C53.8019 176.977 51.1559 172.273 45.8639 169.856V169.464C50.4373 166.524 52.7239 162.342 52.7239 156.92C52.7239 151.497 50.9599 147.479 47.4319 144.866C43.9693 142.252 38.5793 140.946 31.2619 140.946H3.91992V201.804H31.6539ZM31.1639 188.574C30.5759 189.292 29.3999 189.652 27.6359 189.652H24.7939V177.108H27.6359C29.3346 177.108 30.4779 177.63 31.0659 178.676C31.7193 179.656 32.0459 181.354 32.0459 183.772C32.0459 186.189 31.7519 187.79 31.1639 188.574ZM30.2819 165.152C29.7593 165.936 28.9099 166.328 27.7339 166.328H24.7939V155.646H27.6359C28.8773 155.646 29.7593 156.07 30.2819 156.92C30.8699 157.769 31.1639 159.174 31.1639 161.134C31.1639 163.028 30.8699 164.368 30.2819 165.152Z" fill="url(#paint0_linear_1150_3388)"/>
<path fill-rule="evenodd" clip-rule="evenodd" d="M197.317 162.508C197.24 162.508 197.164 162.506 197.088 162.503C196.845 162.775 196.571 163.022 196.27 163.238C195.406 163.857 194.375 164.18 193.328 164.174C199.299 168.488 202.277 174.768 202.277 182.4C202.277 189.916 199.998 196.401 194.905 201.149L194.871 201.18C189.789 205.831 182.85 207.784 174.835 207.784C167.882 207.784 161.038 207.003 154.309 205.44C153.387 206.31 152.161 206.804 150.877 206.804H130.297C127.929 206.804 125.885 205.142 125.402 202.824L124.271 197.396H121.484L120.286 202.872C119.784 205.168 117.751 206.804 115.401 206.804H95.7032H95.6989H95.6946H59.1406C56.3792 206.804 54.1406 204.565 54.1406 201.804V198.537C53.3396 199.509 52.4282 200.412 51.401 201.239C46.445 205.23 39.5766 206.804 31.6539 206.804H3.91992C1.1585 206.804 -1.08008 204.565 -1.08008 201.804V140.946C-1.08008 138.184 1.1585 135.946 3.91992 135.946H31.2619C38.98 135.946 45.6788 137.288 50.4258 140.861C51.9005 141.956 53.1333 143.212 54.1406 144.604V140.946C54.1406 138.184 56.3792 135.946 59.1406 135.946H80.1126C82.8741 135.946 85.1126 138.184 85.1126 140.946V181.026H94.9126L103.45 139.929C103.932 137.609 105.976 135.946 108.345 135.946H138.235C140.605 135.946 142.649 137.609 143.131 139.929L146.964 158.38C147.359 151.718 149.711 145.972 154.405 141.67C159.498 137.001 166.264 134.966 174.051 134.966C181.005 134.966 188.117 135.585 195.385 136.812C196.188 136.265 197.158 135.946 198.199 135.946H245.925C246.42 135.946 246.907 136.019 247.372 136.16C247.832 136.021 248.319 135.946 248.824 135.946H269.796C272.558 135.946 274.796 138.184 274.796 140.946V181.026H284.307V140.946C284.307 138.184 286.545 135.946 289.307 135.946H329.487C330.371 135.946 331.23 136.18 331.982 136.613C332.716 136.189 333.569 135.946 334.479 135.946H360.449C368.571 135.946 375.604 137.636 380.513 141.997C382.293 143.554 383.697 145.377 384.769 147.415C385.916 145.296 387.406 143.37 389.261 141.67C394.354 137.001 401.12 134.966 408.907 134.966C416.21 134.966 423.689 135.648 431.339 137.002C433.971 137.468 435.771 139.923 435.425 142.574L433.171 159.822C432.992 161.195 432.251 162.432 431.125 163.238C430.262 163.857 429.23 164.18 428.184 164.174C434.155 168.488 437.133 174.768 437.133 182.4C437.133 189.916 434.854 196.401 429.761 201.149L429.727 201.18C424.645 205.831 417.706 207.784 409.691 207.784C402.216 207.784 394.867 206.881 387.652 205.075C386.708 206.167 385.33 206.804 383.871 206.804H362.212C360.704 206.804 359.319 206.128 358.39 205.028C357.473 206.114 356.101 206.804 354.569 206.804H334.479C333.27 206.804 332.161 206.375 331.296 205.661C330.429 206.377 329.318 206.804 328.115 206.804H289.307C288.609 206.804 287.945 206.661 287.342 206.403C286.738 206.661 286.073 206.804 285.378 206.804H248.824C246.063 206.804 243.824 204.565 243.824 201.804V162.508H236.813V201.804C236.813 204.565 234.574 206.804 231.813 206.804H210.939C208.178 206.804 205.939 204.565 205.939 201.804V162.508H197.317ZM54.1406 168.501C53.9582 168.752 53.7689 168.998 53.5728 169.241C53.7669 169.442 53.9562 169.649 54.1406 169.86V168.501ZM115.401 201.804H100.714H95.7032L108.345 140.946H138.235L149.186 193.665L149.186 193.667L150.877 201.804L130.297 201.804L128.337 192.396H117.459L115.401 201.804ZM80.1126 186.026H93.874H97.0666L95.6946 201.804H90.7031H59.1406V140.946H80.1126V186.026ZM149.81 172.082L151.47 180.074C151.673 179.867 151.895 179.677 152.135 179.506C153.109 178.811 154.291 178.493 155.466 178.594C153.091 176.713 151.203 174.532 149.81 172.082ZM155.742 200.639L155.742 200.639C155.049 200.481 154.358 200.314 153.668 200.138L154.23 193.358L154.229 193.356L155.039 183.576C156.793 184.021 158.432 184.421 159.957 184.777C165.157 185.989 169.032 186.685 171.582 186.862L171.679 186.869C171.742 186.873 171.803 186.876 171.863 186.88C171.995 186.887 172.122 186.893 172.246 186.898C172.432 186.904 172.609 186.908 172.777 186.908C174.803 186.908 175.815 186.189 175.815 184.752C175.815 184.098 175.554 183.576 175.031 183.184C174.578 182.795 173.868 182.374 172.9 181.922L172.875 181.91L172.869 181.907C171.954 181.45 170.584 180.863 168.759 180.146C166.93 179.362 165.395 178.708 164.153 178.186C162.912 177.598 161.442 176.716 159.743 175.54C154.517 171.946 151.903 166.916 151.903 160.448C151.903 153.98 153.863 148.949 157.783 145.356C161.703 141.762 167.126 139.966 174.051 139.966C181.042 139.966 188.229 140.619 195.611 141.926L193.357 159.174C193.085 159.119 192.815 159.065 192.549 159.013L192.549 159.013C191.084 158.723 189.714 158.461 188.439 158.226C183.626 157.34 180.161 156.846 178.045 156.744C177.938 156.739 177.835 156.734 177.736 156.731L177.674 156.729C177.63 156.728 177.588 156.727 177.546 156.726L177.46 156.725C177.401 156.724 177.342 156.724 177.285 156.724C176.989 156.724 176.709 156.734 176.447 156.756C176.222 156.774 176.009 156.8 175.809 156.834C174.245 157.1 173.463 157.847 173.463 159.076C173.463 159.664 173.659 160.088 174.051 160.35C174.443 160.546 174.737 160.709 174.933 160.84C175.129 160.97 175.489 161.134 176.011 161.33C176.342 161.44 176.631 161.55 176.879 161.66C176.904 161.671 176.929 161.682 176.953 161.694C176.968 161.701 176.983 161.708 176.998 161.715C177.008 161.719 177.018 161.724 177.028 161.729C177.16 161.792 177.278 161.855 177.383 161.918C177.775 162.048 178.951 162.538 180.911 163.388C182.937 164.172 184.439 164.825 185.419 165.348C186.465 165.805 187.869 166.589 189.633 167.7C194.729 171.032 197.277 175.932 197.277 182.4C197.277 188.868 195.35 193.898 191.495 197.492C187.641 201.02 182.087 202.784 174.835 202.784C168.365 202.784 162 202.069 155.742 200.639ZM243.824 157.508H244.749L245.925 140.946H243.824L200.516 140.946L198.199 140.946L197.317 157.508H210.939V201.804H231.813V157.508H243.824ZM248.824 160.405V201.804H284.307H285.378L286.75 186.026H284.307H269.796V140.946H250.925H248.824V160.405L248.824 160.405ZM328.115 201.804H290.397H289.307V181.729V140.946H329.479H329.487L329.479 141.041L328.115 157.116H310.279V164.466H325.861V178.578H310.279V186.908H329.479H329.487L329.479 186.996L328.115 201.804ZM334.479 187.192V201.804H354.569V180.832H356.137L362.212 201.804L383.87 201.804L383.609 201.065L374.757 176.03C377.435 174.266 379.395 172.24 380.637 169.954C381.36 168.652 381.883 167.111 382.206 165.329C382.466 163.891 382.596 162.297 382.596 160.546L382.596 160.448C382.591 158.575 382.447 156.842 382.162 155.249C381.432 151.161 379.78 147.993 377.207 145.748C373.613 142.546 368.027 140.946 360.449 140.946H334.487H334.479V141.23V186.623V187.192ZM409.691 202.784C402.528 202.784 395.494 201.907 388.591 200.155L388.557 200.146L388.523 200.138L388.535 199.997L389.895 183.576C391.648 184.021 393.288 184.421 394.813 184.777C400.012 185.989 403.888 186.685 406.438 186.862L406.535 186.869C406.597 186.873 406.659 186.876 406.719 186.88C406.85 186.887 406.978 186.893 407.102 186.898C407.287 186.904 407.465 186.908 407.633 186.908C409.659 186.908 410.671 186.189 410.671 184.752C410.671 184.098 410.41 183.576 409.887 183.184C409.434 182.795 408.724 182.374 407.756 181.922L407.731 181.91L407.725 181.907C406.81 181.45 405.44 180.863 403.615 180.146C401.786 179.362 400.251 178.708 399.009 178.186C397.768 177.598 396.298 176.716 394.599 175.54C390.732 172.881 388.295 169.435 387.289 165.202C387.276 165.144 387.262 165.087 387.249 165.029C386.929 163.621 386.766 162.126 386.759 160.546L386.759 160.448C386.759 160.246 386.761 160.045 386.765 159.846C386.796 158.236 386.952 156.718 387.232 155.292C388.029 151.242 389.831 147.93 392.639 145.356C396.559 141.762 401.982 139.966 408.907 139.966C415.898 139.966 423.084 140.619 430.467 141.926L428.213 159.174C426.441 158.819 424.802 158.503 423.295 158.226C418.482 157.34 415.017 156.846 412.901 156.744C412.794 156.739 412.691 156.734 412.592 156.731L412.529 156.729C412.486 156.728 412.444 156.727 412.402 156.726L412.316 156.725C412.256 156.724 412.198 156.724 412.141 156.724C411.845 156.724 411.565 156.734 411.303 156.756C411.078 156.774 410.865 156.8 410.665 156.834C409.101 157.1 408.319 157.847 408.319 159.076C408.319 159.664 408.515 160.088 408.907 160.35C409.299 160.546 409.593 160.709 409.789 160.84C409.985 160.97 410.345 161.134 410.867 161.33C411.198 161.44 411.487 161.55 411.735 161.66C411.786 161.683 411.836 161.706 411.884 161.729C412.016 161.792 412.134 161.855 412.239 161.918C412.631 162.048 413.807 162.538 415.767 163.388C417.793 164.172 419.295 164.825 420.275 165.348C421.321 165.805 422.725 166.589 424.489 167.7C429.585 171.032 432.133 175.932 432.133 182.4C432.133 188.868 430.206 193.898 426.351 197.492C422.497 201.02 416.943 202.784 409.691 202.784ZM384.912 183.163L384.47 188.501L380.677 177.774C382.392 176.232 383.832 174.49 384.927 172.528C386.291 174.797 388.092 176.828 390.322 178.594C389.147 178.493 387.965 178.811 386.991 179.506C385.794 180.36 385.034 181.698 384.912 183.163ZM354.177 157.018H356.725C357.738 157.018 358.555 157.249 359.177 157.713C359.396 157.877 359.592 158.07 359.763 158.292C360.416 159.141 360.742 160.676 360.742 162.898C360.742 165.119 360.416 166.687 359.763 167.602C359.601 167.834 359.406 168.035 359.177 168.204C358.568 168.652 357.718 168.876 356.626 168.876H354.177V157.018ZM123.143 159.37H122.751L118.929 179.754H126.867L123.143 159.37ZM46.2258 170.027C47.681 170.737 48.9266 171.628 49.9625 172.7C52.5221 175.35 53.8019 179.106 53.8019 183.968C53.8019 195.858 46.4193 201.804 31.6539 201.804H3.91992V140.946H31.2619C38.5793 140.946 43.9693 142.252 47.4319 144.866C50.9599 147.479 52.7239 151.497 52.7239 156.92C52.7239 160.565 51.6905 163.65 49.6236 166.173C48.6738 167.333 47.5057 168.374 46.1193 169.297C46.035 169.353 45.9498 169.409 45.8639 169.464V169.856C45.9859 169.911 46.1066 169.968 46.2258 170.027ZM27.6359 177.108H24.7939V189.652H27.6359C28.4946 189.652 29.2139 189.567 29.7939 189.396C30.4055 189.217 30.8621 188.943 31.1639 188.574C31.7519 187.79 32.0459 186.189 32.0459 183.772C32.0459 181.354 31.7193 179.656 31.0659 178.676C30.7765 178.161 30.3525 177.773 29.7939 177.512C29.2178 177.242 28.4984 177.108 27.6359 177.108ZM27.6359 155.646H24.7939V166.328H27.7339C28.5962 166.328 29.2829 166.117 29.7939 165.695C29.9798 165.542 30.1425 165.361 30.2819 165.152C30.8699 164.368 31.1639 163.028 31.1639 161.134C31.1639 159.174 30.8699 157.769 30.2819 156.92C30.1442 156.696 29.9815 156.502 29.7939 156.337C29.2695 155.876 28.5502 155.646 27.6359 155.646Z" fill="#383838"/>
</g>
<g filter="url(#filter1_d_1150_3388)">
<path d="M205.062 12.0856C208.143 6.71805 209.684 4.03427 212 4.03427C214.316 4.03427 215.857 6.71805 218.938 12.0856L240.714 50.0171C241.83 51.9613 242.388 52.9335 242.388 54C242.388 55.0665 241.83 56.0387 240.714 57.9829L218.938 95.9144C215.857 101.282 214.316 103.966 212 103.966C209.684 103.966 208.143 101.282 205.062 95.9144L183.287 57.9829C182.17 56.0387 181.612 55.0665 181.612 54C181.612 52.9335 182.17 51.9613 183.287 50.0171L205.062 12.0856Z" fill="url(#paint1_linear_1150_3388)"/>
<path fill-rule="evenodd" clip-rule="evenodd" d="M223.274 9.59626L245.129 47.6659C245.618 48.5162 246.146 49.4357 246.528 50.2839C246.976 51.2782 247.388 52.5121 247.388 54C247.388 55.4879 246.976 56.7218 246.528 57.7161C246.146 58.5643 245.618 59.4838 245.129 60.3341C245.103 60.3804 245.076 60.4264 245.05 60.4723L223.274 98.4037C223.218 98.502 223.162 98.6001 223.105 98.6979C221.712 101.126 220.399 103.415 219.106 105.052C217.734 106.788 215.483 108.966 212 108.966C208.517 108.966 206.266 106.788 204.894 105.052C203.601 103.415 202.288 101.126 200.895 98.698C200.838 98.6001 200.782 98.502 200.726 98.4038L178.95 60.4723C178.924 60.4264 178.897 60.3803 178.871 60.334C178.382 59.4837 177.854 58.5643 177.472 57.7161C177.024 56.7218 176.612 55.4879 176.612 54C176.612 52.5121 177.024 51.2782 177.472 50.2839C177.854 49.4358 178.382 48.5163 178.871 47.6661C178.897 47.6197 178.924 47.5736 178.95 47.5277L200.726 9.59627C200.782 9.49804 200.838 9.4 200.895 9.30218C202.288 6.87362 203.601 4.58494 204.894 2.94807C206.266 1.21183 208.517 -0.965729 212 -0.965729C215.483 -0.965729 217.734 1.21182 219.106 2.94806C220.399 4.58493 221.712 6.8736 223.106 9.30215C223.162 9.39997 223.218 9.49802 223.274 9.59626ZM212 4.03427C209.684 4.03427 208.143 6.71805 205.062 12.0856L183.287 50.0171C182.17 51.9613 181.612 52.9335 181.612 54C181.612 55.0665 182.17 56.0387 183.287 57.9829L205.062 95.9144C208.143 101.282 209.684 103.966 212 103.966C214.316 103.966 215.857 101.282 218.938 95.9144L240.714 57.9829C241.83 56.0387 242.388 55.0665 242.388 54C242.388 52.9335 241.83 51.9613 240.714 50.0171L218.938 12.0856C215.857 6.71805 214.316 4.03427 212 4.03427Z" fill="#383838"/>
<path d="M223.578 21.9432C226.656 16.6326 228.195 13.9773 230.5 13.9773C232.805 13.9773 234.344 16.6326 237.421 21.9432L253.675 49.9886C254.809 51.946 255.377 52.9247 255.377 54C255.377 55.0753 254.809 56.054 253.675 58.0114L237.421 86.0568C234.344 91.3674 232.805 94.0227 230.5 94.0227C228.195 94.0227 226.656 91.3674 223.578 86.0568L207.325 58.0114C206.19 56.054 205.623 55.0753 205.623 54C205.623 52.9247 206.19 51.946 207.325 49.9886L223.578 21.9432Z" fill="url(#paint2_linear_1150_3388)"/>
<path fill-rule="evenodd" clip-rule="evenodd" d="M241.747 19.4361L258.001 47.4815C258.028 47.5277 258.055 47.5741 258.082 47.6207C258.578 48.4767 259.115 49.4019 259.503 50.2556C259.958 51.2563 260.377 52.4995 260.377 54C260.377 55.5005 259.958 56.7437 259.503 57.7444C259.115 58.5982 258.578 59.5234 258.082 60.3795C258.055 60.426 258.028 60.4724 258.001 60.5185L241.747 88.564C241.691 88.6616 241.634 88.759 241.578 88.8563C240.187 91.2578 238.874 93.5248 237.582 95.1465C236.208 96.8708 233.962 99.0227 230.5 99.0227C227.038 99.0227 224.791 96.8707 223.418 95.1465C222.126 93.5248 220.813 91.2578 219.422 88.8563C219.365 88.7591 219.309 88.6616 219.252 88.5639L202.999 60.5185C202.972 60.4724 202.945 60.426 202.918 60.3794C202.422 59.5233 201.885 58.5981 201.497 57.7444C201.042 56.7437 200.623 55.5005 200.623 54C200.623 52.4995 201.042 51.2563 201.497 50.2556C201.885 49.4019 202.422 48.4767 202.918 47.6206C202.945 47.574 202.972 47.5276 202.999 47.4815L219.252 19.4361C219.309 19.3384 219.365 19.241 219.422 19.1437C220.813 16.7422 222.126 14.4753 223.418 12.8535C224.791 11.1293 227.038 8.97729 230.5 8.97729C233.962 8.97729 236.208 11.1293 237.582 12.8535C238.874 14.4753 240.187 16.7422 241.578 19.1437C241.634 19.2409 241.691 19.3384 241.747 19.4361ZM230.5 13.9773C228.195 13.9773 226.656 16.6326 223.578 21.9432L207.325 49.9886C206.19 51.946 205.623 52.9247 205.623 54C205.623 55.0753 206.19 56.054 207.325 58.0114L223.578 86.0568C226.656 91.3674 228.195 94.0227 230.5 94.0227C232.805 94.0227 234.344 91.3674 237.421 86.0568L253.675 58.0114C254.809 56.054 255.377 55.0753 255.377 54C255.377 52.9247 254.809 51.946 253.675 49.9886L237.421 21.9432C234.344 16.6326 232.805 13.9773 230.5 13.9773Z" fill="#383838"/>
</g>
<defs>
<filter id="filter0_d_1150_3388" x="-65.0801" y="78.9658" width="566.213" height="200.818" filterUnits="userSpaceOnUse" color-interpolation-filters="sRGB">
<feFlood flood-opacity="0" result="BackgroundImageFix"/>
<feColorMatrix in="SourceAlpha" type="matrix" values="0 0 0 0 0 0 0 0 0 0 0 0 0 0 0 0 0 0 127 0" result="hardAlpha"/>
<feOffset dy="8"/>
<feGaussianBlur stdDeviation="32"/>
<feComposite in2="hardAlpha" operator="out"/>
<feColorMatrix type="matrix" values="0 0 0 0 0.992157 0 0 0 0 0.733333 0 0 0 0 0.00392157 0 0 0 0.2 0"/>
<feBlend mode="normal" in2="BackgroundImageFix" result="effect1_dropShadow_1150_3388"/>
<feBlend mode="normal" in="SourceGraphic" in2="effect1_dropShadow_1150_3388" result="shape"/>
</filter>
<filter id="filter1_d_1150_3388" x="112.612" y="-56.9657" width="211.764" height="237.931" filterUnits="userSpaceOnUse" color-interpolation-filters="sRGB">
<feFlood flood-opacity="0" result="BackgroundImageFix"/>
<feColorMatrix in="SourceAlpha" type="matrix" values="0 0 0 0 0 0 0 0 0 0 0 0 0 0 0 0 0 0 127 0" result="hardAlpha"/>
<feOffset dy="8"/>
<feGaussianBlur stdDeviation="32"/>
<feComposite in2="hardAlpha" operator="out"/>
<feColorMatrix type="matrix" values="0 0 0 0 0.992157 0 0 0 0 0.733333 0 0 0 0 0.00392157 0 0 0 0.2 0"/>
<feBlend mode="normal" in2="BackgroundImageFix" result="effect1_dropShadow_1150_3388"/>
<feBlend mode="normal" in="SourceGraphic" in2="effect1_dropShadow_1150_3388" result="shape"/>
</filter>
<linearGradient id="paint0_linear_1150_3388" x1="217" y1="119.804" x2="217" y2="232.804" gradientUnits="userSpaceOnUse">
<stop offset="0.03" stop-color="#FFF8E1"/>
<stop offset="0.44246" stop-color="#FDBB01"/>
<stop offset="1" stop-color="#E2621A"/>
</linearGradient>
<linearGradient id="paint1_linear_1150_3388" x1="211.854" y1="-28.0396" x2="211.854" y2="151.722" gradientUnits="userSpaceOnUse">
<stop offset="0.03" stop-color="#FFF8E1"/>
<stop offset="0.44246" stop-color="#FDBB01"/>
<stop offset="1" stop-color="#E2621A"/>
</linearGradient>
<linearGradient id="paint2_linear_1150_3388" x1="230.381" y1="-11.714" x2="230.381" y2="132.276" gradientUnits="userSpaceOnUse">
<stop offset="0.03" stop-color="#FFF8E1"/>
<stop offset="0.44246" stop-color="#FDBB01"/>
<stop offset="1" stop-color="#E2621A"/>
</linearGradient>
</defs>
</svg>
