<svg width="208" height="28" viewBox="0 0 208 28" fill="none" xmlns="http://www.w3.org/2000/svg">
<path fill-rule="evenodd" clip-rule="evenodd" d="M66.5175 9.12949C66.5175 6.24649 67.3985 4.00416 69.1605 2.4025C70.9224 0.800832 73.3598 0 76.4726 0C79.6147 0 82.845 0.291213 86.1633 0.873637L85.1502 8.56162C81.4795 7.83359 79.0715 7.46958 77.9262 7.46958C76.7809 7.46958 76.2083 7.81903 76.2083 8.51794C76.2083 8.78003 76.2964 8.96932 76.4726 9.0858C76.6488 9.17317 76.7809 9.24597 76.869 9.30421C76.9571 9.36246 77.1186 9.43526 77.3536 9.52262C77.6179 9.60998 77.8234 9.69735 77.9702 9.78471C78.1464 9.84295 78.675 10.0614 79.556 10.4399C80.4663 10.7894 81.1418 11.0806 81.5822 11.3136C82.0521 11.5174 82.6835 11.8669 83.4763 12.3619C85.7669 13.8471 86.9121 16.0312 86.9121 18.9142C86.9121 21.7972 86.0459 24.0395 84.3133 25.6412C82.5807 27.2137 80.0846 28 76.825 28C73.5947 28 70.4232 27.6069 67.3104 26.8206L67.9271 19.4384C71.8621 20.4285 74.5198 20.9236 75.8999 20.9236C76.8103 20.9236 77.2655 20.6032 77.2655 19.9626C77.2655 19.6713 77.148 19.4384 76.9131 19.2636C76.7075 19.0889 76.3845 18.8996 75.944 18.6958C75.5329 18.4919 74.9162 18.2298 74.0939 17.9095C73.2717 17.5601 72.5816 17.2689 72.0237 17.0359C71.4657 16.7738 70.805 16.3807 70.0415 15.8565C67.6922 14.2548 66.5175 12.0125 66.5175 9.12949ZM172.079 9.12949C172.079 6.24649 172.96 4.00416 174.722 2.4025C176.484 0.800832 178.921 0 182.034 0C185.176 0 188.406 0.291213 191.725 0.873637L190.711 8.56162C187.041 7.83359 184.633 7.46958 183.487 7.46958C182.342 7.46958 181.77 7.81903 181.77 8.51794C181.77 8.78003 181.858 8.96932 182.034 9.0858C182.21 9.17317 182.342 9.24597 182.43 9.30421C182.518 9.36246 182.68 9.43526 182.915 9.52262C183.179 9.60998 183.385 9.69735 183.532 9.78471C183.708 9.84295 184.236 10.0614 185.117 10.4399C186.028 10.7894 186.703 11.0806 187.144 11.3136C187.613 11.5174 188.245 11.8669 189.038 12.3619C191.328 13.8471 192.473 16.0312 192.473 18.9142C192.473 21.7972 191.607 24.0395 189.875 25.6412C188.142 27.2137 185.646 28 182.386 28C179.156 28 175.984 27.6069 172.872 26.8206L173.488 19.4384C177.423 20.4285 180.081 20.9236 181.461 20.9236C182.372 20.9236 182.827 20.6032 182.827 19.9626C182.827 19.6713 182.709 19.4384 182.474 19.2636C182.269 19.0889 181.946 18.8996 181.505 18.6958C181.094 18.4919 180.477 18.2298 179.655 17.9095C178.833 17.5601 178.143 17.2689 177.585 17.0359C177.027 16.7738 176.366 16.3807 175.603 15.8565C173.253 14.2548 172.079 12.0125 172.079 9.12949ZM170.205 9.17317C170.205 10.9204 169.911 12.3183 169.324 13.3666C168.766 14.3859 167.885 15.2886 166.681 16.0749L170.777 27.5632H161.043L158.312 18.2153H157.607V27.5632H148.577V0.436821H160.25C163.656 0.436821 166.167 1.15029 167.782 2.57723C169.397 3.97504 170.205 6.17369 170.205 9.17317ZM158.532 12.8861C159.207 12.8861 159.677 12.6968 159.941 12.3183C160.235 11.9106 160.382 11.2117 160.382 10.2215C160.382 9.23141 160.235 8.54707 159.941 8.16849C159.648 7.78992 159.193 7.60063 158.576 7.60063H157.431V12.8861H158.532ZM128.273 27.5632H145.717L146.333 20.9236H137.7V17.2106H144.703V10.9204H137.7V7.64431H145.717L146.333 0.436821H128.273V27.5632ZM126.512 27.5632H110.082V0.436821H119.508V20.5304H127.129L126.512 27.5632ZM102.431 7.81904H108.245L108.774 0.436821H87.3218L86.9254 7.81904H93.0482V27.5632H102.431V7.81904ZM56.8038 27.5632H66.0541L60.3718 0.436821H46.9369L41.2546 27.5632H50.1084L51.0334 23.3697H55.9229L56.8038 27.5632ZM53.5883 8.64899L55.2621 17.7348H51.6942L53.4121 8.64899H53.5883ZM41.2488 27.5632H24.8186V0.436821H34.245V20.5304H41.8655L41.2488 27.5632ZM12.4658 27.5632C19.1025 27.5632 22.4208 24.9132 22.4208 19.6131C22.4208 16.4971 21.2315 14.4004 18.8529 13.3229V13.1482C20.9085 11.8378 21.9363 9.974 21.9363 7.55695C21.9363 5.13989 21.1434 3.34894 19.5577 2.18409C18.0013 1.01924 15.5786 0.436821 12.2896 0.436821H0V27.5632H12.4658ZM12.2456 21.6661C11.9813 21.9865 11.4527 22.1466 10.6598 22.1466H9.3824V16.5554H10.6598C11.4233 16.5554 11.9372 16.7884 12.2015 17.2543C12.4952 17.6911 12.642 18.4483 12.642 19.5257C12.642 20.6032 12.5099 21.3167 12.2456 21.6661ZM11.8491 11.2262C11.6142 11.5757 11.2324 11.7504 10.7039 11.7504H9.3824V6.98908H10.6598C11.2178 6.98908 11.6142 7.17837 11.8491 7.55695C12.1134 7.93552 12.2456 8.56163 12.2456 9.43526C12.2456 10.2798 12.1134 10.8768 11.8491 11.2262Z" fill="#F2F2F2"/>
</svg>
