<svg width="21" height="20" viewBox="0 0 21 20" fill="none" xmlns="http://www.w3.org/2000/svg">
<path d="M8.8774 1.28633C9.43456 -0.219385 11.5642 -0.219386 12.1214 1.28633L13.7608 5.71679C13.936 6.19018 14.3092 6.56342 14.7826 6.73859L19.2131 8.37801C20.7188 8.93517 20.7188 11.0648 19.2131 11.622L14.7826 13.2614C14.3092 13.4366 13.936 13.8098 13.7608 14.2832L12.1214 18.7137C11.5642 20.2194 9.43456 20.2194 8.8774 18.7137L7.23798 14.2832C7.06281 13.8098 6.68957 13.4366 6.21618 13.2614L1.78572 11.622C0.280004 11.0648 0.280005 8.93517 1.78572 8.37801L6.21618 6.73859C6.68957 6.56342 7.06281 6.19018 7.23798 5.71679L8.8774 1.28633Z" fill="#626EF6"/>
</svg>
