<svg width="21" height="26" viewBox="0 0 21 26" fill="none" xmlns="http://www.w3.org/2000/svg">
<path d="M14.1991 4.74637C13.7889 5.34922 13.3787 5.94585 12.9747 6.54248C12.4776 7.27585 11.9804 8.00921 11.4832 8.74257C11.073 9.34542 10.669 9.94206 10.2588 10.5387C9.78648 11.2348 9.31415 11.9246 8.84803 12.6207C8.77966 12.7201 8.7113 12.8258 8.63672 12.9377C8.82938 13.0992 9.01583 13.2546 9.20228 13.41C9.23335 13.3976 9.27064 13.3851 9.30172 13.3727C9.60003 13.236 9.89835 13.0992 10.1905 12.9687C10.3769 12.8817 10.5634 12.8009 10.756 12.7201C10.7995 12.7015 10.843 12.6704 10.8927 12.7077C10.9487 12.7512 10.9176 12.8071 10.9114 12.8506C10.8741 13.0309 10.8306 13.2111 10.7871 13.3913C10.7063 13.7207 10.6255 14.0501 10.5447 14.3795C10.5323 14.423 10.5261 14.4727 10.5198 14.5038C10.7187 14.6654 10.899 14.8146 11.0854 14.9699C11.1351 14.9264 11.1724 14.8891 11.2159 14.8456C11.421 14.6406 11.6199 14.4417 11.825 14.2366C12.229 13.8326 12.6329 13.4286 13.0431 13.0247C13.3601 12.7077 13.677 12.3907 13.994 12.08C14.3918 11.6822 14.7957 11.2845 15.1935 10.8867C15.5104 10.5698 15.8336 10.2466 16.1506 9.92962C16.5483 9.53187 16.9461 9.14033 17.3439 8.74257C17.667 8.4194 17.9902 8.09622 18.3072 7.77926C18.7111 7.37529 19.1213 6.97132 19.5253 6.56735C19.8485 6.24417 20.1779 5.91477 20.501 5.59781C20.5694 5.52945 20.6067 5.46108 20.6005 5.35543C20.557 3.99436 20.5197 2.63328 20.4824 1.266C20.4824 1.22871 20.4824 1.18521 20.4762 1.12927C20.4389 1.13549 20.414 1.1417 20.383 1.14792C19.0157 1.36544 17.6422 1.58918 16.2749 1.8067C16.2065 1.81913 16.163 1.85021 16.1195 1.90614C16.0076 2.08016 15.8896 2.24796 15.7777 2.41576C15.2556 3.18642 14.7274 3.96328 14.1991 4.73393V4.74637ZM18.5806 3.32315C18.5806 3.32315 18.6303 3.261 18.6614 3.22992C18.6925 3.19885 18.7236 3.19885 18.7546 3.22992C18.7857 3.25478 18.7857 3.28585 18.7609 3.31693C18.7422 3.348 18.7174 3.37286 18.6925 3.40394C17.8721 4.39211 17.058 5.38029 16.2376 6.36846C14.7584 8.15215 13.2731 9.93584 11.7939 11.7195C11.7628 11.7506 11.738 11.7941 11.7069 11.819C11.6883 11.8314 11.651 11.8252 11.6323 11.819C11.6199 11.8128 11.6137 11.7692 11.6261 11.7568C11.6447 11.7195 11.6758 11.6947 11.7007 11.6636C12.8504 10.2777 14.0002 8.88552 15.15 7.49959C15.15 7.49959 15.15 7.49958 15.1438 7.49337C16.2935 6.10744 17.4371 4.72151 18.5868 3.34179L18.5806 3.32315Z" fill="#80E7DB"/>
<path d="M10.7984 16.0203C10.7673 15.8587 10.7114 15.7034 10.6555 15.548C10.5871 15.3367 10.5063 15.1316 10.4317 14.9203C10.3634 14.7276 10.3572 14.535 10.4131 14.3361C10.5125 13.9445 10.612 13.5468 10.7114 13.149C10.7363 13.062 10.7549 12.9688 10.7798 12.8507C10.6679 12.9004 10.5809 12.9377 10.5001 12.975C10.1707 13.1242 9.8351 13.2733 9.51813 13.4349C9.23225 13.5841 8.93393 13.6089 8.6294 13.5468C8.56103 13.5344 8.49267 13.5219 8.4243 13.5095C8.23786 13.4784 8.05141 13.4411 7.86496 13.4225C7.42991 13.379 7.03216 13.4909 6.67169 13.7332C6.3423 13.957 6.10613 14.2677 5.9259 14.622C5.82646 14.8146 5.75188 15.0197 5.71459 15.2372C5.68352 15.4299 5.71459 15.6164 5.82024 15.7779C5.87618 15.865 5.95697 15.9022 6.05641 15.896C6.11856 15.896 6.1745 15.8774 6.23664 15.865C6.42309 15.8215 6.61576 15.7779 6.80221 15.7344C7.03216 15.6847 7.26833 15.6412 7.51071 15.6412C7.57286 15.6412 7.62879 15.6412 7.69094 15.6474C7.70337 15.4734 7.7158 15.3056 7.72823 15.1378C7.74066 15.0073 7.79038 14.9514 7.92089 14.9451C8.25029 14.9265 8.57968 14.9016 8.90907 14.9327C9.00851 14.9451 9.05823 14.9824 9.08309 15.0819C9.17631 15.3988 9.2136 15.7282 9.25089 16.0576C9.26332 16.1757 9.21982 16.2379 9.10795 16.2751C9.07066 16.2876 9.03337 16.3 8.98986 16.3124C8.85935 16.3435 8.73505 16.3808 8.59832 16.4119C8.71019 16.8221 8.68533 17.2322 8.66669 17.6424C8.66669 17.7357 8.66047 17.8289 8.65426 17.9221C8.65426 17.9656 8.65426 18.0091 8.65426 18.0526C8.66669 18.1583 8.71641 18.2328 8.81585 18.2764C8.95257 18.3323 9.0893 18.3509 9.23225 18.3136C9.33169 18.2888 9.42491 18.2577 9.51813 18.2142C9.89725 18.0278 10.2142 17.7667 10.4628 17.4187C10.7611 16.9961 10.8916 16.53 10.7984 16.0141V16.0203Z" fill="#8F6E05"/>
<path d="M7.43063 18.2888C7.47413 18.2577 7.51142 18.2204 7.56114 18.1769C7.0453 17.8227 6.57297 17.4311 6.12549 16.9899C6.11306 17.0085 6.10063 17.0085 6.10063 17.0147C6.07577 17.0644 6.0447 17.1142 6.01984 17.1639C5.58479 18.0464 5.06273 18.873 4.49096 19.6685C4.13671 20.1595 3.77003 20.638 3.40335 21.1228C2.99937 21.6573 2.5519 22.1421 2.09199 22.6268C1.9304 22.8008 1.76882 22.9749 1.60723 23.1489C1.56372 23.1986 1.55751 23.2421 1.5948 23.298C1.73774 23.5404 1.9304 23.702 2.19765 23.7952C2.2598 23.8201 2.3033 23.8077 2.3468 23.7579C2.42138 23.6585 2.49596 23.5653 2.56433 23.4658C2.8875 23.0308 3.20447 22.5833 3.54007 22.1607C4.0932 21.4708 4.70227 20.8307 5.31133 20.1906C5.97012 19.5007 6.6724 18.8606 7.43063 18.2826V18.2888Z" fill="#D79D1E"/>
<path d="M3.18957 9.74939C2.6613 10.3025 2.537 11.7817 2.96583 12.3535C2.97205 12.3162 2.98447 12.2789 2.99069 12.2478C3.02798 12.0614 3.09013 11.8935 3.18957 11.732C3.25172 11.6263 3.3263 11.5331 3.44438 11.4834C3.52517 11.4461 3.54382 11.4523 3.60597 11.5206C3.63083 11.5455 3.65569 11.5704 3.68676 11.5952C4.53821 12.3037 5.38966 13.0122 6.2411 13.7207C6.27839 13.7518 6.31568 13.7829 6.35297 13.814C6.68858 13.5156 7.06769 13.3416 7.5276 13.2857C6.06709 12.0924 4.63143 10.924 3.18957 9.74939Z" fill="#D79D1E"/>
<path d="M10.9585 16.1322C10.9895 16.5983 10.8839 17.0023 10.6602 17.3876C10.6974 17.4187 10.7347 17.4498 10.7658 17.4746C11.6235 18.1769 12.4749 18.8854 13.3326 19.5877C13.3637 19.6126 13.4009 19.6436 13.4444 19.6623C13.4942 19.6871 13.5128 19.7244 13.5004 19.7679C13.4755 19.8425 13.4507 19.9233 13.4009 19.9855C13.2518 20.1781 13.0529 20.2962 12.8354 20.3894C12.7981 20.4019 12.7608 20.4205 12.7297 20.4329C13.1959 20.5821 13.6558 20.5697 14.1157 20.4329C14.5383 20.3024 15.1287 19.9357 15.2344 19.7306C13.8173 18.5374 12.4003 17.3441 10.9585 16.1322Z" fill="#D79D1E"/>
<path d="M4.59154 10.7624C5.06388 11.1477 5.53 11.533 6.00233 11.9183C6.53682 12.3596 7.07752 12.7946 7.612 13.2297C7.612 13.2297 7.612 13.2297 7.62443 13.2359C7.66172 13.2546 7.70523 13.2732 7.74252 13.2794C7.91653 13.3043 8.09677 13.3291 8.27079 13.354C8.47588 13.3851 8.67476 13.4161 8.87985 13.441C8.91714 13.441 8.95443 13.441 9.01658 13.441C7.24532 11.9743 5.49892 10.5262 3.74009 9.0719C3.54122 9.2397 3.36098 9.41994 3.23047 9.64989C3.26154 9.67475 3.28019 9.69339 3.29883 9.70582C3.72766 10.0539 4.1565 10.4019 4.58533 10.7499L4.59154 10.7624Z" fill="#D79D1E"/>
<path d="M15.7976 19.0594C14.0388 17.6051 12.2924 16.157 10.5273 14.6903C10.5336 14.74 10.5398 14.7649 10.546 14.7897C10.5833 14.9078 10.6206 15.0259 10.6641 15.144C10.7511 15.3926 10.8381 15.635 10.9189 15.8836C10.9375 15.9457 10.9624 15.9892 11.0121 16.0327C11.2794 16.2565 11.5466 16.4864 11.8138 16.7102C12.5907 17.3689 13.3738 18.0215 14.1569 18.6803C14.5236 18.991 14.8902 19.2956 15.2569 19.6063C15.2818 19.625 15.3066 19.6436 15.3315 19.656C15.5304 19.482 15.6671 19.2769 15.7976 19.0532V19.0594Z" fill="#D79D1E"/>
<path d="M8.54008 17.2943C8.54008 17.0706 8.51522 16.853 8.50279 16.6293C8.50279 16.592 8.48415 16.5547 8.47172 16.5112C8.39714 16.5796 8.39092 16.6604 8.38471 16.735C8.36607 16.8717 8.33499 16.9152 8.20448 16.9401C8.13611 16.9525 8.06775 16.9525 7.99938 16.9587C7.83158 16.9587 7.66378 16.9587 7.49597 16.9649C7.44625 16.9649 7.35924 16.8841 7.35303 16.8344C7.34681 16.7785 7.3406 16.7225 7.32817 16.6728C7.30331 16.5237 7.26602 16.3745 7.24738 16.2191C7.22252 16.0389 7.27224 15.9767 7.44004 15.927C7.5084 15.9084 7.57055 15.8835 7.60784 15.8214C7.43382 15.7592 6.8434 15.8462 6.35242 16.0016C6.28406 16.1632 6.22813 16.3186 6.15976 16.4677C6.10383 16.5858 6.11626 16.679 6.19084 16.7847C6.32135 16.9587 6.47051 17.1016 6.63831 17.2384C6.84341 17.4062 7.0485 17.5802 7.25359 17.748C7.42761 17.8909 7.60163 18.0215 7.80672 18.1085C7.90616 18.152 7.98695 18.1458 8.08018 18.0836C8.20448 17.9966 8.33499 17.9158 8.4655 17.835C8.51522 17.8039 8.52765 17.7729 8.52765 17.7169C8.52765 17.574 8.5463 17.4373 8.5463 17.2943H8.54008Z" fill="#D79D1E"/>
<path d="M8.54237 16.2811C8.70396 16.2439 8.86555 16.2066 9.02092 16.1631C9.10793 16.1382 9.11414 16.132 9.10171 16.045C9.05821 15.7777 9.0147 15.5105 8.9712 15.2495C8.96499 15.1935 8.94013 15.1438 8.9277 15.0941C8.87798 15.0941 8.84069 15.0817 8.80961 15.0817C8.52372 15.0817 8.23784 15.0941 7.95195 15.1003C7.88358 15.1003 7.85873 15.1314 7.85251 15.1998C7.8463 15.3613 7.83387 15.5291 7.82765 15.6907C7.82765 15.7156 7.82765 15.7404 7.82144 15.7591C7.75307 15.8834 7.66606 15.9953 7.52933 16.045C7.48583 16.0574 7.44854 16.0698 7.3926 16.0885C7.3926 16.1196 7.37396 16.1444 7.38017 16.1693C7.41746 16.3619 7.45475 16.5546 7.49826 16.7473C7.51069 16.797 7.54798 16.8094 7.59148 16.8094C7.77172 16.8094 7.95195 16.8218 8.13218 16.8156C8.22541 16.8156 8.23784 16.797 8.25027 16.6975C8.2627 16.536 8.34349 16.4179 8.46158 16.3184C8.48644 16.2998 8.51751 16.2874 8.54858 16.2811H8.54237Z" fill="#80E7DB"/>
<path d="M2.42381 24.5471C2.57297 24.2239 2.59783 24.2985 2.41138 23.9505C2.32438 23.938 2.2498 23.9505 2.18143 23.9194C2.06335 23.8759 1.95148 23.8262 1.83961 23.7702C1.78989 23.7454 1.74017 23.7019 1.70288 23.6522C1.64695 23.5838 1.59723 23.5092 1.54751 23.4346C1.48536 23.3476 1.42321 23.2544 1.44807 23.1363C1.36727 23.1177 1.29891 23.099 1.23055 23.0742C1.14354 23.0431 1.06274 23.0617 0.994379 23.1177C0.907369 23.186 0.826575 23.2544 0.733351 23.3103C0.652557 23.3601 0.646341 23.4222 0.664986 23.5092C0.733351 23.7827 0.882509 24.0126 1.09382 24.1929C1.20569 24.2861 1.31755 24.3793 1.42942 24.4725C1.63452 24.6341 1.86447 24.7336 2.11928 24.7584C2.2933 24.7771 2.30573 24.7646 2.38653 24.603C2.39895 24.5844 2.41138 24.5595 2.4176 24.5409L2.42381 24.5471Z" fill="#8F6E05"/>
<path d="M1.0566 24.3545C0.863934 24.2053 0.720991 24.0126 0.615337 23.7889C0.602907 23.764 0.590477 23.7392 0.565617 23.6895C0.515898 23.8324 0.472393 23.9505 0.435104 24.0748C0.422674 24.1059 0.422674 24.1494 0.435104 24.1804C0.528328 24.4663 0.671271 24.7211 0.926084 24.8889C1.08767 25.0008 1.27412 25.0692 1.473 25.1065C1.57865 25.1251 1.67188 25.1189 1.75889 25.0567C1.83968 25.007 1.92669 24.9573 2.00748 24.9076C1.83968 24.8392 1.67188 24.7833 1.52893 24.6963C1.36113 24.5968 1.21197 24.4663 1.0566 24.342V24.3545Z" fill="#8F6E05"/>
<path d="M15.9432 19.0903C15.9805 19.0282 15.9681 18.9909 15.9059 18.9536C15.8748 18.9288 15.8375 18.9101 15.8065 18.8853C14.3024 17.6423 12.7984 16.3931 11.2944 15.1501C11.2633 15.1252 11.2385 15.1003 11.2074 15.0693C11.2198 15.0506 11.2261 15.032 11.2385 15.0258C11.4809 14.7834 11.7232 14.541 11.9656 14.2986C12.3634 13.9009 12.7611 13.5093 13.1589 13.1116C13.4821 12.7884 13.8115 12.4652 14.1346 12.1358C14.5262 11.7443 14.9177 11.359 15.3093 10.9674C15.6387 10.638 15.9681 10.3148 16.2912 9.98546C16.689 9.5877 17.0867 9.19616 17.4845 8.7984C17.8077 8.47522 18.1309 8.15204 18.454 7.83508C18.8518 7.43733 19.2495 7.04579 19.6473 6.64803C19.9767 6.31864 20.3061 5.98924 20.6417 5.65985C20.7163 5.58527 20.7473 5.5107 20.7473 5.40504C20.7101 4.14341 20.6728 2.88177 20.6417 1.62014C20.6417 1.43369 20.6417 1.25346 20.6417 1.06701C20.6417 0.998647 20.5858 0.961358 20.5174 0.980003C20.4615 0.998648 20.3993 1.01729 20.3434 1.02351C18.9823 1.24103 17.6212 1.45856 16.2602 1.67608C16.1607 1.69472 16.0799 1.73201 16.024 1.81902C15.676 2.34107 15.3217 2.86313 14.9674 3.37897C14.6132 3.90103 14.2527 4.42308 13.8985 4.94514C13.451 5.61014 12.9973 6.27514 12.5498 6.94013C12.1459 7.53677 11.7357 8.1334 11.3317 8.73004C10.8345 9.4634 10.3373 10.1968 9.84012 10.9301C9.41751 11.5516 9.0011 12.1731 8.57849 12.7884C8.56606 12.807 8.55363 12.8195 8.52877 12.8381C8.49148 12.807 8.46041 12.7822 8.43555 12.7573C6.93775 11.5143 5.43373 10.2713 3.93593 9.02835C3.90485 9.00349 3.87378 8.97863 3.84892 8.94756C3.78677 8.88541 3.76191 8.88541 3.68733 8.94756C3.35173 9.22723 3.09691 9.56284 2.89803 9.94816C2.43813 10.8555 2.45056 11.7505 2.94154 12.6454C2.94154 12.6454 2.94154 12.6517 2.94154 12.6579C2.96018 12.6952 2.99126 12.72 3.02855 12.7076C3.05341 12.6952 3.07827 12.6579 3.0907 12.6268C3.10313 12.5833 3.09691 12.5398 3.10313 12.4963C3.12177 12.2663 3.17771 12.0488 3.28957 11.8499C3.33929 11.7629 3.39523 11.6759 3.48224 11.6262C4.40205 12.3906 5.32186 13.1489 6.24789 13.9133C6.21681 13.9506 6.19817 13.9754 6.17331 14.0065C6.01793 14.1805 5.89363 14.3794 5.78798 14.5907C5.68854 14.7834 5.62018 14.9885 5.57667 15.206C5.53938 15.4235 5.55803 15.6286 5.6699 15.8275C5.76312 15.9891 5.89985 16.0699 6.09251 16.0512C6.11737 16.0512 6.14223 16.0512 6.17952 16.0512C6.16709 16.0885 6.16088 16.1134 6.14845 16.1382C6.10494 16.2439 6.06144 16.3496 6.01793 16.449C5.962 16.5671 5.962 16.6789 6.03036 16.797C6.04279 16.8157 6.04901 16.8343 6.05522 16.853C6.01793 16.9275 5.98064 16.9959 5.94335 17.0705C5.55803 17.8349 5.12298 18.5683 4.632 19.2706C4.27154 19.7802 3.89242 20.2774 3.52574 20.7808C2.99126 21.508 2.37598 22.173 1.74827 22.8255C1.67991 22.8939 1.61776 22.9623 1.54939 23.0306C1.44374 23.0058 1.3443 22.9747 1.23865 22.9498C1.13299 22.925 1.03977 22.9374 0.952757 22.9995C0.847103 23.0803 0.74145 23.1549 0.629581 23.2357C0.542572 23.2979 0.505282 23.3911 0.474207 23.4843C0.424488 23.6272 0.393413 23.7826 0.337479 23.9194C0.27533 24.0747 0.275329 24.2239 0.356124 24.373C0.443133 24.5346 0.530142 24.69 0.617151 24.8454C0.629581 24.864 0.642011 24.8765 0.660655 24.8889C0.722805 24.9386 0.784955 24.9945 0.847104 25.0443C0.865749 25.0629 0.890608 25.0753 0.921683 25.0878C0.983832 25.1126 1.0522 25.1313 1.11435 25.1561C1.22 25.1934 1.32565 25.2245 1.43752 25.2556C1.58047 25.2929 1.71098 25.268 1.84149 25.1934C1.97822 25.1126 2.12738 25.0443 2.26411 24.9635C2.35733 24.9137 2.43813 24.8516 2.48785 24.7522C2.53757 24.6527 2.58107 24.5533 2.63079 24.4601C2.69916 24.3295 2.69916 24.199 2.63079 24.0685C2.58729 23.9877 2.55 23.9007 2.51271 23.8261C3.98565 21.6571 6.23546 19.3327 7.7519 18.2451C7.91971 18.3321 8.06886 18.2824 8.20559 18.1705C8.2491 18.1332 8.29882 18.1084 8.34854 18.0773C8.39826 18.0462 8.44798 18.0152 8.51013 17.9779C8.51013 18.0214 8.52255 18.0524 8.52255 18.0835C8.5412 18.2513 8.62821 18.3694 8.78358 18.4316C8.90788 18.4813 9.03839 18.4999 9.17512 18.4875C9.3305 18.4751 9.47344 18.4191 9.61017 18.3508C9.95199 18.1767 10.2441 17.9406 10.4865 17.6423C10.5175 17.605 10.5486 17.5677 10.5797 17.5304C10.6232 17.5615 10.6543 17.5863 10.6854 17.6112C11.5368 18.3135 12.382 19.0095 13.2335 19.7118C13.2583 19.7305 13.2832 19.7553 13.3081 19.774C13.3453 19.8051 13.3516 19.8424 13.3205 19.8796C13.2708 19.9418 13.221 20.0039 13.1589 20.0599C12.9849 20.209 12.7798 20.3023 12.5623 20.3644C12.5188 20.3768 12.4753 20.383 12.438 20.4017C12.4131 20.4141 12.382 20.4514 12.3758 20.4763C12.3696 20.5198 12.4007 20.5384 12.4442 20.5509C12.525 20.5695 12.5996 20.5944 12.6741 20.613C13.2956 20.7808 13.8985 20.7311 14.4827 20.4701C14.8431 20.3085 15.1539 20.0723 15.4336 19.7988C15.6387 19.6 15.8065 19.3638 15.9494 19.1152L15.9432 19.0903ZM10.2627 10.5448C10.6729 9.94195 11.0831 9.34531 11.4871 8.74868C11.9843 8.01532 12.4815 7.28195 12.9787 6.54859C13.3889 5.94574 13.7928 5.34911 14.203 4.75247C14.7313 3.98182 15.2533 3.20495 15.7816 2.4343C15.8997 2.2665 16.0116 2.09248 16.1234 1.92468C16.1607 1.86874 16.2042 1.83767 16.2788 1.82524C17.6461 1.60771 19.0196 1.39019 20.3869 1.16645C20.4117 1.16645 20.4428 1.15402 20.4801 1.14781C20.4801 1.20374 20.4863 1.24103 20.4863 1.28454C20.5236 2.64561 20.5609 4.00668 20.6044 5.37397C20.6044 5.47962 20.5733 5.54798 20.505 5.61635C20.1756 5.93953 19.8524 6.26271 19.5292 6.58588C19.1252 6.98985 18.7151 7.39382 18.3111 7.79779C17.9879 8.12097 17.6647 8.44415 17.3478 8.76111C16.95 9.15887 16.5523 9.55041 16.1545 9.94816C15.8375 10.2651 15.5144 10.5883 15.1974 10.9053C14.7996 11.303 14.3957 11.7008 13.9979 12.0985C13.681 12.4155 13.364 12.7325 13.047 13.0432C12.6431 13.4472 12.2329 13.8511 11.8289 14.2551C11.6238 14.454 11.4249 14.6591 11.2198 14.8642C11.1825 14.9015 11.139 14.9388 11.0893 14.9885C10.9029 14.8331 10.7164 14.6839 10.5238 14.5224C10.5238 14.4913 10.5362 14.4478 10.5486 14.3981C10.6294 14.0687 10.7102 13.7393 10.791 13.4099C10.8345 13.2297 10.878 13.0494 10.9153 12.8692C10.9277 12.8195 10.9526 12.7635 10.8967 12.7262C10.8469 12.689 10.8034 12.7262 10.7599 12.7387C10.5735 12.8195 10.387 12.9065 10.1944 12.9873C9.89606 13.124 9.59774 13.2607 9.30564 13.3912C9.27456 13.4037 9.23727 13.4161 9.2062 13.4285C9.01975 13.2732 8.8333 13.1178 8.64064 12.9562C8.71522 12.8443 8.78358 12.7449 8.85195 12.6392C9.32428 11.9432 9.7904 11.2533 10.2627 10.5572V10.5448ZM3.74948 9.07807C5.50831 10.5324 7.25471 11.9805 9.02597 13.4472C8.96382 13.4472 8.92653 13.4472 8.88924 13.4472C8.68414 13.4161 8.48526 13.385 8.28017 13.3602C8.10615 13.3353 7.92592 13.3167 7.7519 13.2856C7.7084 13.2856 7.67111 13.2545 7.63382 13.2421C7.63382 13.2421 7.6276 13.2421 7.62139 13.2359C7.0869 12.8008 6.5462 12.3596 6.01172 11.9245C5.53938 11.5392 5.07326 11.1539 4.60093 10.7685C4.1721 10.4205 3.74327 10.0725 3.31444 9.72443C3.29579 9.70578 3.27093 9.68714 3.24607 9.66849C3.3828 9.43854 3.56303 9.25831 3.7557 9.0905L3.74948 9.07807ZM6.34733 13.8139C6.31004 13.7828 6.27275 13.7517 6.23546 13.7206C5.38401 13.0121 4.53256 12.3036 3.68112 11.5951C3.65626 11.5703 3.62518 11.5454 3.60032 11.5205C3.53817 11.4522 3.51953 11.446 3.43873 11.4833C3.32065 11.533 3.24607 11.6324 3.18392 11.7319C3.08448 11.8934 3.02233 12.0612 2.98504 12.2477C2.97883 12.2788 2.97261 12.3161 2.96018 12.3533C2.53135 11.7816 2.65565 10.3024 3.18392 9.74928C4.61957 10.9239 6.06144 12.0923 7.52195 13.2856C7.06204 13.3415 6.68293 13.5155 6.34733 13.8139ZM1.7607 25.0629C1.66748 25.125 1.58047 25.1313 1.47481 25.1126C1.28215 25.0753 1.0957 25.007 0.927898 24.8951C0.6793 24.7211 0.530142 24.4725 0.436918 24.1866C0.424488 24.1555 0.424488 24.112 0.436918 24.0809C0.474208 23.9566 0.517712 23.8386 0.567432 23.6956C0.592291 23.7453 0.604721 23.7702 0.617151 23.7951C0.722805 24.0126 0.865748 24.2052 1.05841 24.3606C1.21378 24.4849 1.36294 24.6154 1.53075 24.7149C1.67369 24.8019 1.84149 24.8516 2.0093 24.9262C1.92229 24.9759 1.84149 25.0194 1.7607 25.0753V25.0629ZM2.41327 23.9504C2.5935 24.2985 2.57486 24.2239 2.4257 24.5471C2.41327 24.5719 2.40705 24.5906 2.39462 24.6092C2.31383 24.7708 2.3014 24.777 2.12738 24.7646C1.86635 24.7397 1.6364 24.6403 1.43752 24.4787C1.32565 24.3855 1.21379 24.2985 1.10192 24.199C0.890609 24.0126 0.74145 23.7888 0.673086 23.5154C0.654441 23.4346 0.666871 23.3724 0.74145 23.3165C0.834674 23.2544 0.915469 23.186 1.00248 23.1238C1.07706 23.0679 1.15164 23.0555 1.23865 23.0803C1.30701 23.1052 1.37537 23.1176 1.45617 23.1425C1.43131 23.2606 1.49346 23.3538 1.55561 23.4408C1.60533 23.5154 1.65505 23.59 1.71098 23.6583C1.74827 23.7018 1.79799 23.7453 1.84771 23.7764C1.95958 23.8323 2.07145 23.8883 2.18953 23.9256C2.25168 23.9504 2.32626 23.9442 2.41948 23.9566L2.41327 23.9504ZM7.4598 18.2824C6.70158 18.8604 5.99929 19.5005 5.34051 20.1904C4.73144 20.8305 4.12238 21.4707 3.56925 22.1605C3.22743 22.5831 2.91668 23.0306 2.58729 23.4657C2.51271 23.5651 2.43813 23.6583 2.36976 23.7578C2.33247 23.8137 2.28897 23.8199 2.22061 23.7951C1.95958 23.7018 1.7607 23.534 1.61776 23.2979C1.58668 23.2419 1.58668 23.1984 1.63019 23.1487C1.79177 22.9747 1.95336 22.8007 2.11495 22.6266C2.57486 22.1419 3.02233 21.6509 3.4263 21.1226C3.79299 20.6379 4.15967 20.1593 4.51392 19.6683C5.08569 18.8728 5.60775 18.0462 6.04279 17.1637C6.06765 17.114 6.09251 17.0643 6.12359 17.0146C6.12359 17.0083 6.13602 17.0021 6.14845 16.9897C6.58971 17.431 7.06204 17.8225 7.5841 18.1767C7.53438 18.2202 7.49709 18.2575 7.45359 18.2886L7.4598 18.2824ZM8.46041 17.8349C8.32989 17.9157 8.19938 17.9965 8.07508 18.0835C7.98807 18.1457 7.90106 18.1519 7.80162 18.1084C7.59653 18.0214 7.4163 17.8846 7.24849 17.7479C7.0434 17.5801 6.83831 17.4123 6.63321 17.2383C6.47162 17.1016 6.31625 16.9524 6.18574 16.7846C6.11116 16.6852 6.09873 16.5857 6.15466 16.4676C6.22924 16.3185 6.28518 16.1631 6.34733 16.0015C6.83831 15.8461 7.42873 15.7591 7.60274 15.8213C7.55924 15.8834 7.49709 15.9083 7.43494 15.9269C7.26714 15.9829 7.22363 16.0388 7.24228 16.219C7.26092 16.3682 7.29821 16.5174 7.32307 16.6727C7.3355 16.7287 7.34172 16.7846 7.34793 16.8343C7.34793 16.884 7.44115 16.9648 7.49087 16.9648C7.65868 16.9648 7.82648 16.9648 7.99429 16.9586C8.06265 16.9586 8.13101 16.9586 8.19938 16.94C8.32989 16.9151 8.36097 16.8716 8.37961 16.7349C8.38583 16.6603 8.39204 16.5857 8.46662 16.5111C8.47905 16.5609 8.49769 16.5919 8.49769 16.6292C8.51013 16.853 8.52877 17.0705 8.53498 17.2942C8.53498 17.4372 8.52255 17.5739 8.51634 17.7168C8.51634 17.7666 8.50391 17.8039 8.45419 17.8349H8.46041ZM8.2491 16.6976C8.24288 16.797 8.23045 16.8157 8.13101 16.8157C7.95078 16.8157 7.77055 16.8157 7.59031 16.8095C7.54681 16.8095 7.50952 16.797 7.49709 16.7473C7.4598 16.5546 7.4163 16.362 7.37901 16.1693C7.37901 16.1445 7.38522 16.1258 7.39144 16.0885C7.44115 16.0699 7.48466 16.0575 7.52816 16.045C7.67111 15.9953 7.75812 15.8834 7.82027 15.7591C7.8327 15.7405 7.82027 15.7156 7.82648 15.6908C7.8327 15.5292 7.84513 15.3614 7.85134 15.1998C7.85134 15.1376 7.88242 15.1066 7.95078 15.1003C8.23667 15.1003 8.52256 15.0879 8.80844 15.0817C8.84573 15.0817 8.88302 15.0879 8.92653 15.0941C8.93896 15.1439 8.96382 15.1936 8.97003 15.2495C9.01354 15.5167 9.06325 15.784 9.10054 16.045C9.11297 16.132 9.10054 16.1445 9.01975 16.1631C8.85816 16.2066 8.69657 16.2377 8.5412 16.2812C8.51013 16.2874 8.47905 16.2998 8.45419 16.3185C8.33611 16.4179 8.25531 16.536 8.24288 16.6976H8.2491ZM9.52316 18.2265C9.43615 18.27 9.33671 18.301 9.23727 18.3259C9.09433 18.357 8.9576 18.3445 8.82087 18.2886C8.72143 18.2451 8.67171 18.1705 8.65928 18.0649C8.65928 18.0214 8.65928 17.9779 8.65928 17.9344C8.65928 17.8411 8.65928 17.7479 8.67171 17.6547C8.69036 17.2445 8.71522 16.8343 8.60335 16.4241C8.74008 16.3868 8.86438 16.3558 8.99489 16.3247C9.03218 16.3123 9.07568 16.3061 9.11297 16.2874C9.22484 16.2501 9.27456 16.188 9.25592 16.0699C9.21241 15.7405 9.18134 15.4111 9.08811 15.0941C9.06325 15.0009 9.01354 14.9574 8.9141 14.945C8.5847 14.9139 8.25531 14.9388 7.92592 14.9574C7.80162 14.9636 7.74569 15.0196 7.73326 15.1501C7.71461 15.3179 7.7084 15.4857 7.69597 15.6597C7.63382 15.6597 7.57167 15.6535 7.51573 15.6535C7.27335 15.6535 7.0434 15.6908 6.80723 15.7467C6.62078 15.7902 6.42812 15.8337 6.24167 15.8772C6.18574 15.8896 6.12359 15.9021 6.06144 15.9083C5.962 15.9145 5.8812 15.8772 5.82527 15.7902C5.7134 15.6224 5.68854 15.4422 5.71962 15.2495C5.75691 15.032 5.83149 14.8269 5.93092 14.6342C6.11116 14.28 6.34733 13.9754 6.67672 13.7455C7.03718 13.5031 7.43494 13.385 7.86999 13.4347C8.05643 13.4534 8.24288 13.4907 8.42933 13.5218C8.49769 13.5342 8.56606 13.5404 8.63442 13.559C8.94517 13.6212 9.23727 13.5963 9.52316 13.4472C9.84634 13.2794 10.1819 13.1364 10.5051 12.9873C10.5859 12.95 10.6729 12.9127 10.7848 12.863C10.7599 12.9811 10.7413 13.0681 10.7164 13.1613C10.617 13.559 10.5238 13.9506 10.4181 14.3483C10.3684 14.5472 10.3684 14.7399 10.4368 14.9325C10.5113 15.1439 10.5921 15.3489 10.6605 15.5603C10.7102 15.7156 10.7724 15.871 10.8034 16.0326C10.8967 16.5484 10.7661 17.0146 10.4678 17.4372C10.2254 17.779 9.90849 18.0462 9.52316 18.2327V18.2265ZM14.1222 20.439C13.6623 20.5757 13.2024 20.5881 12.7363 20.439C12.7736 20.4266 12.8109 20.4079 12.8419 20.3955C13.0595 20.3023 13.2583 20.1842 13.4075 19.9915C13.4572 19.9294 13.4821 19.8486 13.5069 19.774C13.5256 19.7305 13.5069 19.687 13.451 19.6683C13.4137 19.6497 13.3764 19.6248 13.3391 19.5938C12.4815 18.8915 11.63 18.183 10.7724 17.4807C10.7413 17.4558 10.704 17.4247 10.6667 17.3937C10.8967 17.0083 10.9961 16.6044 10.965 16.1382C12.4069 17.3502 13.8239 18.5434 15.2409 19.7367C15.1353 19.9418 14.5448 20.3147 14.1222 20.439ZM15.3341 19.6745C15.3341 19.6745 15.2844 19.6435 15.2595 19.6248C14.8929 19.3141 14.5262 19.0095 14.1595 18.6988C13.3764 18.04 12.5996 17.3874 11.8165 16.7287C11.5492 16.5049 11.282 16.275 11.0147 16.0512C10.965 16.0077 10.9402 15.9642 10.9215 15.9021C10.8407 15.6535 10.7537 15.4049 10.6667 15.1625C10.6232 15.0444 10.5859 14.9263 10.5486 14.8082C10.5424 14.7834 10.5362 14.7585 10.53 14.7088C12.295 16.1693 14.0414 17.6174 15.8002 19.0779C15.6697 19.3017 15.533 19.5067 15.3341 19.6808V19.6745Z" fill="#020911"/>
<path d="M11.7061 11.645C11.7061 11.645 11.6501 11.7071 11.6315 11.7382C11.6253 11.7568 11.6315 11.7941 11.6377 11.8003C11.6563 11.8128 11.6936 11.8128 11.7123 11.8003C11.7496 11.7755 11.7744 11.7382 11.7993 11.7009C13.2784 9.91721 14.7638 8.13352 16.243 6.34984C17.0633 5.36166 17.8775 4.37349 18.6979 3.38531C18.7227 3.36045 18.7414 3.32938 18.7662 3.2983C18.7911 3.26723 18.7849 3.24237 18.76 3.21129C18.7289 3.18022 18.6979 3.18022 18.6668 3.21129C18.6419 3.24237 18.6109 3.27344 18.586 3.30452C17.4362 4.69045 16.2927 6.07638 15.1429 7.45609C15.1429 7.45609 15.1429 7.4561 15.1491 7.46231C13.9994 8.84824 12.8496 10.2404 11.6998 11.6263L11.7061 11.645Z" fill="#020911"/>
</svg>
